<svg height="638" width="720" xmlns="http://www.w3.org/2000/svg">
<rect height="638" fill="#555" width="720"></rect>
<text fill="#7f7" font-family="Courier New" font-size="12" xml:space="preserve">
<tspan x="10" y="26">2016-10-28 00:29:43 +0800</tspan>
<tspan x="10" y="42">update readme</tspan>
<tspan x="10" y="58"></tspan>
<tspan x="10" y="74">2016-10-28 00:19:58 +0800</tspan>
<tspan x="10" y="90">test build</tspan>
<tspan x="10" y="106"></tspan>
<tspan x="10" y="122">2016-10-28 00:15:34 +0800</tspan>
<tspan x="10" y="138">add tests</tspan>
<tspan x="10" y="154"></tspan>
<tspan x="10" y="170">2016-10-27 23:58:25 +0800</tspan>
<tspan x="10" y="186">- add testCase_rbst_default</tspan>
<tspan x="10" y="202"></tspan>
<tspan x="10" y="218">2016-10-27 23:50:51 +0800</tspan>
<tspan x="10" y="234">improve test-coverage</tspan>
<tspan x="10" y="250"></tspan>
<tspan x="10" y="266">2016-10-27 23:29:14 +0800</tspan>
<tspan x="10" y="282">- fix sizeUpdate</tspan>
<tspan x="10" y="298"></tspan>
<tspan x="10" y="314">2016-10-27 23:03:21 +0800</tspan>
<tspan x="10" y="330">update</tspan>
<tspan x="10" y="346"></tspan>
<tspan x="10" y="362">2016-10-27 23:00:22 +0800</tspan>
<tspan x="10" y="378">minor</tspan>
<tspan x="10" y="394"></tspan>
<tspan x="10" y="410">2016-10-27 03:52:49 +0800</tspan>
<tspan x="10" y="426">cleanup</tspan>
<tspan x="10" y="442"></tspan>
<tspan x="10" y="458">2016-10-27 03:37:45 +0800</tspan>
<tspan x="10" y="474">cleanup</tspan>
<tspan x="10" y="490"></tspan>
<tspan x="10" y="506">2016-10-26 01:16:30 +0800</tspan>
<tspan x="10" y="522">fix readme</tspan>
<tspan x="10" y="538"></tspan>
<tspan x="10" y="554">2016-10-25 23:46:29 +0800</tspan>
<tspan x="10" y="570">- npm publish 2016.9.1</tspan>
<tspan x="10" y="586"></tspan>
<tspan x="10" y="602">2014-03-26 02:31:50 +0700</tspan>
<tspan x="10" y="618">add blank README.md</tspan>
</text>
</svg>
