<svg height="1294" width="720" xmlns="http://www.w3.org/2000/svg">
<rect height="1294" fill="#555" width="720"></rect>
<text fill="#7f7" font-family="Courier New" font-size="12" xml:space="preserve">
<tspan x="10" y="26"></tspan>
<tspan x="10" y="42">[MODE_BUILD=npmTestPublished] - 2016-10-27T16:28:38Z - npm-testing published-package rbst-lite</tspan>
<tspan x="10" y="58"></tspan>
<tspan x="10" y="74">/tmp/app</tspan>
<tspan x="10" y="90">└── rbst-lite@2016.10.9 </tspan>
<tspan x="10" y="106"></tspan>
<tspan x="10" y="122">npm WARN enoent ENOENT: no such file or directory, open '/tmp/app/package.json'</tspan>
<tspan x="10" y="138">npm WARN app No description</tspan>
<tspan x="10" y="154">npm WARN app No repository field.</tspan>
<tspan x="10" y="170">npm WARN app No README data</tspan>
<tspan x="10" y="186">npm WARN app No license field.</tspan>
<tspan x="10" y="202"></tspan>
<tspan x="10" y="218">&gt; electron-lite@2016.8.1 postinstall /tmp/app/node_modules/rbst-lite/node_modules/electron-lite</tspan>
<tspan x="10" y="234">&gt; ./index.sh shNpmPostinstall</tspan>
<tspan x="10" y="250"></tspan>
<tspan x="10" y="266">rbst-lite@2016.10.9 /tmp/app/node_modules/rbst-lite</tspan>
<tspan x="10" y="282">├── electron-lite@2016.8.1  (git://github.com/kaizhu256/node-electron-lite.git#b1a242305e7af3fe9\</tspan>
<tspan x="10" y="298">9c517eb882f1b9f55b25c80)</tspan>
<tspan x="10" y="314">└── utility2@2016.10.2  (git://github.com/kaizhu256/node-utility2.git#f4fdc9d8c17597d94ed64261d6\</tspan>
<tspan x="10" y="330">3af9e9f4ef9ced)</tspan>
<tspan x="10" y="346"></tspan>
<tspan x="10" y="362"></tspan>
<tspan x="10" y="378">&gt; rbst-lite@2016.10.9 test /tmp/app/node_modules/rbst-lite</tspan>
<tspan x="10" y="394">&gt; utility2-istanbul cover index.js</tspan>
<tspan x="10" y="410"></tspan>
<tspan x="10" y="426"></tspan>
<tspan x="10" y="442">covering $ /home/travis/.nvm/versions/node/v7.0.0/bin/node /tmp/app/node_modules/rbst-lite/index\</tspan>
<tspan x="10" y="458">.js</tspan>
<tspan x="10" y="474"></tspan>
<tspan x="10" y="490">find 0</tspan>
<tspan x="10" y="506">{ key: 0,</tspan>
<tspan x="10" y="522">  data: 2,</tspan>
<tspan x="10" y="538">  left: null,</tspan>
<tspan x="10" y="554">  right: </tspan>
<tspan x="10" y="570">   { key: 0,</tspan>
<tspan x="10" y="586">     data: 8,</tspan>
<tspan x="10" y="602">     left: null,</tspan>
<tspan x="10" y="618">     right: { key: 1, data: 10, left: null, right: [Object], size: 2 },</tspan>
<tspan x="10" y="634">     size: 3 },</tspan>
<tspan x="10" y="650">  size: 4 }</tspan>
<tspan x="10" y="666"></tspan>
<tspan x="10" y="682">find undefined</tspan>
<tspan x="10" y="698">null</tspan>
<tspan x="10" y="714"></tspan>
<tspan x="10" y="730">findInKeyRange [0, Infinity]</tspan>
<tspan x="10" y="746">[ 0, 0, 1, 2, 3 ]</tspan>
<tspan x="10" y="762"></tspan>
<tspan x="10" y="778">tree</tspan>
<tspan x="10" y="794">(ii,depth) key</tspan>
<tspan x="10" y="810">(0,2) * * -1</tspan>
<tspan x="10" y="826">(1,1) * -0.5</tspan>
<tspan x="10" y="842">(2,2) * * 0</tspan>
<tspan x="10" y="858">(3,3) * * * 0</tspan>
<tspan x="10" y="874">(4,4) * * * * 1</tspan>
<tspan x="10" y="890">(5,5) * * * * * 2</tspan>
<tspan x="10" y="906">(6,0) 3</tspan>
<tspan x="10" y="922">(7,3) * * * false</tspan>
<tspan x="10" y="938">(8,6) * * * * * * true</tspan>
<tspan x="10" y="954">(9,5) * * * * * "-1"</tspan>
<tspan x="10" y="970">(10,4) * * * * "0"</tspan>
<tspan x="10" y="986">(11,2) * * "1"</tspan>
<tspan x="10" y="1002">(12,3) * * * "a"</tspan>
<tspan x="10" y="1018">(13,1) * "b"</tspan>
<tspan x="10" y="1034">(14,2) * * null</tspan>
<tspan x="10" y="1050">(15,3) * * * []</tspan>
<tspan x="10" y="1066">(16,4) * * * * null</tspan>
<tspan x="10" y="1082">(17,6) * * * * * * {}</tspan>
<tspan x="10" y="1098">(18,5) * * * * * undefined</tspan>
<tspan x="10" y="1114">height = 6</tspan>
<tspan x="10" y="1130">---------------|-----------|-----------|-----------|-----------|</tspan>
<tspan x="10" y="1146">File           |   % Stmts |% Branches |   % Funcs |   % Lines |</tspan>
<tspan x="10" y="1162">---------------|-----------|-----------|-----------|-----------|</tspan>
<tspan x="10" y="1178">   rbst-lite/  |       100 |       100 |       100 |       100 |</tspan>
<tspan x="10" y="1194">      index.js |       100 |       100 |       100 |       100 |</tspan>
<tspan x="10" y="1210">---------------|-----------|-----------|-----------|-----------|</tspan>
<tspan x="10" y="1226">All files      |       100 |       100 |       100 |       100 |</tspan>
<tspan x="10" y="1242">---------------|-----------|-----------|-----------|-----------|</tspan>
<tspan x="10" y="1258"></tspan>
<tspan x="10" y="1274">created coverage file:///tmp/app/node_modules/rbst-lite/tmp/build/coverage.html/index.html</tspan>
</text>
</svg>
