<svg height="3406" width="720" xmlns="http://www.w3.org/2000/svg">
<rect height="3406" fill="#555" width="720"></rect>
<text fill="#7f7" font-family="Courier New" font-size="12" xml:space="preserve">
<tspan x="10" y="26"></tspan>
<tspan x="10" y="42">[MODE_BUILD=npmTestPublished] - 2016-10-27T18:41:45Z - npm-testing published-package rbst-lite</tspan>
<tspan x="10" y="58"></tspan>
<tspan x="10" y="74">/tmp/app</tspan>
<tspan x="10" y="90">└── rbst-lite@2016.10.10 </tspan>
<tspan x="10" y="106"></tspan>
<tspan x="10" y="122">npm WARN enoent ENOENT: no such file or directory, open '/tmp/app/package.json'</tspan>
<tspan x="10" y="138">npm WARN app No description</tspan>
<tspan x="10" y="154">npm WARN app No repository field.</tspan>
<tspan x="10" y="170">npm WARN app No README data</tspan>
<tspan x="10" y="186">npm WARN app No license field.</tspan>
<tspan x="10" y="202"></tspan>
<tspan x="10" y="218">&gt; electron-lite@2016.8.1 postinstall /tmp/app/node_modules/rbst-lite/node_modules/electron-lite</tspan>
<tspan x="10" y="234">&gt; ./index.sh shNpmPostinstall</tspan>
<tspan x="10" y="250"></tspan>
<tspan x="10" y="266">rbst-lite@2016.10.10 /tmp/app/node_modules/rbst-lite</tspan>
<tspan x="10" y="282">├── electron-lite@2016.8.1  (git://github.com/kaizhu256/node-electron-lite.git#b1a242305e7af3fe9\</tspan>
<tspan x="10" y="298">9c517eb882f1b9f55b25c80)</tspan>
<tspan x="10" y="314">└── utility2@2016.10.2  (git://github.com/kaizhu256/node-utility2.git#580a22575cc6a3db27e3e75fb5\</tspan>
<tspan x="10" y="330">18d37f7644362e)</tspan>
<tspan x="10" y="346"></tspan>
<tspan x="10" y="362"></tspan>
<tspan x="10" y="378">&gt; rbst-lite@2016.10.10 test /tmp/app/node_modules/rbst-lite</tspan>
<tspan x="10" y="394">&gt; export PORT=$(utility2 shServerPortRandom) &amp;&amp; utility2 test test.js</tspan>
<tspan x="10" y="410"></tspan>
<tspan x="10" y="426"></tspan>
<tspan x="10" y="442">[MODE_BUILD=npmTestPublished] - 2016-10-27T18:41:49Z - npm-testing /tmp/app/node_modules/rbst-li\</tspan>
<tspan x="10" y="458">te</tspan>
<tspan x="10" y="474"></tspan>
<tspan x="10" y="490"></tspan>
<tspan x="10" y="506">covering $ /home/travis/.nvm/versions/node/v7.0.0/bin/node /tmp/app/node_modules/rbst-lite/test.\</tspan>
<tspan x="10" y="522">js</tspan>
<tspan x="10" y="538"></tspan>
<tspan x="10" y="554">find 0</tspan>
<tspan x="10" y="570">{ key: 0,</tspan>
<tspan x="10" y="586">  data: 15,</tspan>
<tspan x="10" y="602">  left: { key: 0, data: 9, left: null, right: null, size: 1 },</tspan>
<tspan x="10" y="618">  right: null,</tspan>
<tspan x="10" y="634">  size: 2 }</tspan>
<tspan x="10" y="650"></tspan>
<tspan x="10" y="666">find undefined</tspan>
<tspan x="10" y="682">null</tspan>
<tspan x="10" y="698"></tspan>
<tspan x="10" y="714">findInKeyRange [0, Infinity]</tspan>
<tspan x="10" y="730">[ 0, 0, 1, 2, 3 ]</tspan>
<tspan x="10" y="746"></tspan>
<tspan x="10" y="762">tree</tspan>
<tspan x="10" y="778">(ii,depth,size) key</tspan>
<tspan x="10" y="794">(0,4,1) * * * * -1</tspan>
<tspan x="10" y="810">(1,3,5) * * * -0.5</tspan>
<tspan x="10" y="826">(2,6,1) * * * * * * 0</tspan>
<tspan x="10" y="842">(3,5,2) * * * * * 0</tspan>
<tspan x="10" y="858">(4,4,3) * * * * 1</tspan>
<tspan x="10" y="874">(5,2,13) * * 2</tspan>
<tspan x="10" y="890">(6,3,7) * * * 3</tspan>
<tspan x="10" y="906">(7,6,1) * * * * * * false</tspan>
<tspan x="10" y="922">(8,5,4) * * * * * true</tspan>
<tspan x="10" y="938">(9,7,1) * * * * * * * "-1"</tspan>
<tspan x="10" y="954">(10,6,2) * * * * * * "0"</tspan>
<tspan x="10" y="970">(11,4,6) * * * * "1"</tspan>
<tspan x="10" y="986">(12,5,1) * * * * * "a"</tspan>
<tspan x="10" y="1002">(13,1,14) * "b"</tspan>
<tspan x="10" y="1018">(14,0,19) null</tspan>
<tspan x="10" y="1034">(15,1,4) * []</tspan>
<tspan x="10" y="1050">(16,2,3) * * {}</tspan>
<tspan x="10" y="1066">(17,3,2) * * * null</tspan>
<tspan x="10" y="1082">(18,4,1) * * * * undefined</tspan>
<tspan x="10" y="1098">height = 7</tspan>
<tspan x="10" y="1114"></tspan>
<tspan x="10" y="1130">tree</tspan>
<tspan x="10" y="1146">(ii,depth,size) key</tspan>
<tspan x="10" y="1162">(0,4,1) * * * * -1</tspan>
<tspan x="10" y="1178">(1,3,5) * * * -0.5</tspan>
<tspan x="10" y="1194">(2,6,1) * * * * * * 0</tspan>
<tspan x="10" y="1210">(3,5,2) * * * * * 0</tspan>
<tspan x="10" y="1226">(4,4,3) * * * * 1</tspan>
<tspan x="10" y="1242">(5,2,12) * * 2</tspan>
<tspan x="10" y="1258">(6,3,6) * * * 3</tspan>
<tspan x="10" y="1274">(7,7,1) * * * * * * * false</tspan>
<tspan x="10" y="1290">(8,6,2) * * * * * * "-1"</tspan>
<tspan x="10" y="1306">(9,5,3) * * * * * "0"</tspan>
<tspan x="10" y="1322">(10,4,5) * * * * "1"</tspan>
<tspan x="10" y="1338">(11,5,1) * * * * * "a"</tspan>
<tspan x="10" y="1354">(12,1,13) * "b"</tspan>
<tspan x="10" y="1370">(13,0,18) null</tspan>
<tspan x="10" y="1386">(14,1,4) * []</tspan>
<tspan x="10" y="1402">(15,2,3) * * {}</tspan>
<tspan x="10" y="1418">(16,3,2) * * * null</tspan>
<tspan x="10" y="1434">(17,4,1) * * * * undefined</tspan>
<tspan x="10" y="1450">height = 7</tspan>
<tspan x="10" y="1466"></tspan>
<tspan x="10" y="1482">find 0</tspan>
<tspan x="10" y="1498">{ key: 0,</tspan>
<tspan x="10" y="1514">  data: 3,</tspan>
<tspan x="10" y="1530">  left: { key: -0.5, data: 8, left: null, right: null, size: 1 },</tspan>
<tspan x="10" y="1546">  right: </tspan>
<tspan x="10" y="1562">   { key: 1,</tspan>
<tspan x="10" y="1578">     data: 1,</tspan>
<tspan x="10" y="1594">     left: { key: 0, data: 16, left: null, right: null, size: 1 },</tspan>
<tspan x="10" y="1610">     right: null,</tspan>
<tspan x="10" y="1626">     size: 2 },</tspan>
<tspan x="10" y="1642">  size: 4 }</tspan>
<tspan x="10" y="1658"></tspan>
<tspan x="10" y="1674">find undefined</tspan>
<tspan x="10" y="1690">null</tspan>
<tspan x="10" y="1706"></tspan>
<tspan x="10" y="1722">findInKeyRange [0, Infinity]</tspan>
<tspan x="10" y="1738">[ 0, 0, 1, 2, 3 ]</tspan>
<tspan x="10" y="1754"></tspan>
<tspan x="10" y="1770">tree</tspan>
<tspan x="10" y="1786">(ii,depth,size) key</tspan>
<tspan x="10" y="1802">(0,1,10) * -1</tspan>
<tspan x="10" y="1818">(1,4,1) * * * * -0.5</tspan>
<tspan x="10" y="1834">(2,3,4) * * * 0</tspan>
<tspan x="10" y="1850">(3,5,1) * * * * * 0</tspan>
<tspan x="10" y="1866">(4,4,2) * * * * 1</tspan>
<tspan x="10" y="1882">(5,2,9) * * 2</tspan>
<tspan x="10" y="1898">(6,5,1) * * * * * 3</tspan>
<tspan x="10" y="1914">(7,4,3) * * * * false</tspan>
<tspan x="10" y="1930">(8,5,1) * * * * * true</tspan>
<tspan x="10" y="1946">(9,3,4) * * * "-1"</tspan>
<tspan x="10" y="1962">(10,0,19) "0"</tspan>
<tspan x="10" y="1978">(11,1,8) * "1"</tspan>
<tspan x="10" y="1994">(12,4,1) * * * * "a"</tspan>
<tspan x="10" y="2010">(13,3,6) * * * "b"</tspan>
<tspan x="10" y="2026">(14,4,4) * * * * null</tspan>
<tspan x="10" y="2042">(15,5,3) * * * * * {}</tspan>
<tspan x="10" y="2058">(16,6,2) * * * * * * []</tspan>
<tspan x="10" y="2074">(17,7,1) * * * * * * * null</tspan>
<tspan x="10" y="2090">(18,2,7) * * undefined</tspan>
<tspan x="10" y="2106">height = 7</tspan>
<tspan x="10" y="2122"></tspan>
<tspan x="10" y="2138">tree</tspan>
<tspan x="10" y="2154">(ii,depth,size) key</tspan>
<tspan x="10" y="2170">(0,1,9) * -1</tspan>
<tspan x="10" y="2186">(1,4,1) * * * * -0.5</tspan>
<tspan x="10" y="2202">(2,3,4) * * * 0</tspan>
<tspan x="10" y="2218">(3,5,1) * * * * * 0</tspan>
<tspan x="10" y="2234">(4,4,2) * * * * 1</tspan>
<tspan x="10" y="2250">(5,2,8) * * 2</tspan>
<tspan x="10" y="2266">(6,5,1) * * * * * 3</tspan>
<tspan x="10" y="2282">(7,4,2) * * * * false</tspan>
<tspan x="10" y="2298">(8,3,3) * * * "-1"</tspan>
<tspan x="10" y="2314">(9,0,18) "0"</tspan>
<tspan x="10" y="2330">(10,1,8) * "1"</tspan>
<tspan x="10" y="2346">(11,4,1) * * * * "a"</tspan>
<tspan x="10" y="2362">(12,3,6) * * * "b"</tspan>
<tspan x="10" y="2378">(13,4,4) * * * * null</tspan>
<tspan x="10" y="2394">(14,5,3) * * * * * {}</tspan>
<tspan x="10" y="2410">(15,6,2) * * * * * * []</tspan>
<tspan x="10" y="2426">(16,7,1) * * * * * * * null</tspan>
<tspan x="10" y="2442">(17,2,7) * * undefined</tspan>
<tspan x="10" y="2458">height = 7</tspan>
<tspan x="10" y="2474">[node test-case 1 of 2 passed] - testCase_rbst_default</tspan>
<tspan x="10" y="2490"></tspan>
<tspan x="10" y="2506">browserTest - created electron entry-page /tmp/app/node_modules/rbst-lite/tmp/electron.1580772c-\</tspan>
<tspan x="10" y="2522">04ec-4d3e-aee0-5702387cf907.html</tspan>
<tspan x="10" y="2538"></tspan>
<tspan x="10" y="2554">[4003:1027/184150:ERROR:browser_main_loop.cc(231)] Running without the SUID sandbox! See https:/\</tspan>
<tspan x="10" y="2570">/chromium.googlesource.com/chromium/src/+/master/docs/linux_suid_sandbox_development.md for more\</tspan>
<tspan x="10" y="2586"> information on developing with the sandbox on.</tspan>
<tspan x="10" y="2602">Xlib:  extension "RANDR" missing on display ":99.0".</tspan>
<tspan x="10" y="2618"></tspan>
<tspan x="10" y="2634">/tmp/app/node_modules/rbst-lite/node_modules/utility2/index.sh.js</tspan>
<tspan x="10" y="2650"> #1 Unused 'match0'.</tspan>
<tspan x="10" y="2666">    local.readme.replace(rgx, function (match0, match1, match2, ii, text) { // Line 865, Pos 41</tspan>
<tspan x="10" y="2682"></tspan>
<tspan x="10" y="2698">Xlib:  extension "RANDR" missing on display ":99.0".</tspan>
<tspan x="10" y="2714">[4003:1027/184151:WARNING:audio_manager.cc(314)] Multiple instances of AudioManager detected</tspan>
<tspan x="10" y="2730">[4003:1027/184151:WARNING:audio_manager.cc(275)] Multiple instances of AudioManager detected</tspan>
<tspan x="10" y="2746">[4027:1027/184151:ERROR:sandbox_linux.cc(343)] InitializeSandbox() called with multiple threads \</tspan>
<tspan x="10" y="2762">in process gpu-process. </tspan>
<tspan x="10" y="2778">[4003:1027/184151:ERROR:browser_gpu_channel_host_factory.cc(131)] Failed to create channel.</tspan>
<tspan x="10" y="2794"></tspan>
<tspan x="10" y="2810">browserTest - opened url file:///tmp/app/node_modules/rbst-lite/tmp/build/doc.api.html</tspan>
<tspan x="10" y="2826"></tspan>
<tspan x="10" y="2842"></tspan>
<tspan x="10" y="2858">browserTest - created screen-capture file:///tmp/app/node_modules/rbst-lite/tmp/build/screen-cap\</tspan>
<tspan x="10" y="2874">ture.npmTestPublished.browser._2Ftmp_2Fapp_2Fnode_modules_2Frbst-lite_2Ftmp_2Fbuild_2Fdoc.api.ht\</tspan>
<tspan x="10" y="2890">ml.png</tspan>
<tspan x="10" y="2906"></tspan>
<tspan x="10" y="2922"></tspan>
<tspan x="10" y="2938">browserTest - exit-code 0 - file:///tmp/app/node_modules/rbst-lite/tmp/build/doc.api.html</tspan>
<tspan x="10" y="2954"></tspan>
<tspan x="10" y="2970">[node test-case 2 of 2 passed] - testCase_build_doc</tspan>
<tspan x="10" y="2986">---------------|-----------|-----------|-----------|-----------|</tspan>
<tspan x="10" y="3002">File           |   % Stmts |% Branches |   % Funcs |   % Lines |</tspan>
<tspan x="10" y="3018">---------------|-----------|-----------|-----------|-----------|</tspan>
<tspan x="10" y="3034">   rbst-lite/  |       100 |       100 |       100 |       100 |</tspan>
<tspan x="10" y="3050">      index.js |       100 |       100 |       100 |       100 |</tspan>
<tspan x="10" y="3066">      test.js  |       100 |       100 |       100 |       100 |</tspan>
<tspan x="10" y="3082">---------------|-----------|-----------|-----------|-----------|</tspan>
<tspan x="10" y="3098">All files      |       100 |       100 |       100 |       100 |</tspan>
<tspan x="10" y="3114">---------------|-----------|-----------|-----------|-----------|</tspan>
<tspan x="10" y="3130"></tspan>
<tspan x="10" y="3146">created coverage file:///tmp/app/node_modules/rbst-lite/tmp/build/coverage.html/index.html</tspan>
<tspan x="10" y="3162"></tspan>
<tspan x="10" y="3178">/home/travis/build/kaizhu256/node-rbst-lite/node_modules/utility2/index.sh.js</tspan>
<tspan x="10" y="3194"> #1 Unused 'match0'.</tspan>
<tspan x="10" y="3210">    local.readme.replace(rgx, function (match0, match1, match2, ii, text) { // Line 865, Pos 41</tspan>
<tspan x="10" y="3226"></tspan>
<tspan x="10" y="3242"></tspan>
<tspan x="10" y="3258">-------------------------------------------------------</tspan>
<tspan x="10" y="3274">| test-report - npmTestPublished - node - linux v7.0.0 - 2016-10-27T18:41:50.410Z</tspan>
<tspan x="10" y="3290">|    6450 ms            0 failed        2 passed      |</tspan>
<tspan x="10" y="3306">-------------------------------------------------------</tspan>
<tspan x="10" y="3322"></tspan>
<tspan x="10" y="3338">created test-report file:///tmp/app/node_modules/rbst-lite/tmp/build/test-report.html</tspan>
<tspan x="10" y="3354"></tspan>
<tspan x="10" y="3370"></tspan>
<tspan x="10" y="3386">npmTestPublished - 0 failed tests</tspan>
</text>
</svg>
