<svg height="1374" width="720" xmlns="http://www.w3.org/2000/svg">
<rect height="1374" fill="#555" width="720"></rect>
<text fill="#7f7" font-family="Courier New" font-size="12" xml:space="preserve">
<tspan x="10" y="26"></tspan>
<tspan x="10" y="42">[MODE_BUILD=npmTestPublished] - 2016-10-27T16:32:01Z - npm-testing published-package rbst-lite</tspan>
<tspan x="10" y="58"></tspan>
<tspan x="10" y="74">/tmp/app</tspan>
<tspan x="10" y="90">└── rbst-lite@2016.10.9 </tspan>
<tspan x="10" y="106"></tspan>
<tspan x="10" y="122">npm WARN enoent ENOENT: no such file or directory, open '/tmp/app/package.json'</tspan>
<tspan x="10" y="138">npm WARN app No description</tspan>
<tspan x="10" y="154">npm WARN app No repository field.</tspan>
<tspan x="10" y="170">npm WARN app No README data</tspan>
<tspan x="10" y="186">npm WARN app No license field.</tspan>
<tspan x="10" y="202"></tspan>
<tspan x="10" y="218">&gt; electron-lite@2016.8.1 postinstall /tmp/app/node_modules/rbst-lite/node_modules/electron-lite</tspan>
<tspan x="10" y="234">&gt; ./index.sh shNpmPostinstall</tspan>
<tspan x="10" y="250"></tspan>
<tspan x="10" y="266">rbst-lite@2016.10.9 /tmp/app/node_modules/rbst-lite</tspan>
<tspan x="10" y="282">├── electron-lite@2016.8.1  (git://github.com/kaizhu256/node-electron-lite.git#b1a242305e7af3fe9\</tspan>
<tspan x="10" y="298">9c517eb882f1b9f55b25c80)</tspan>
<tspan x="10" y="314">└── utility2@2016.10.2  (git://github.com/kaizhu256/node-utility2.git#f4fdc9d8c17597d94ed64261d6\</tspan>
<tspan x="10" y="330">3af9e9f4ef9ced)</tspan>
<tspan x="10" y="346"></tspan>
<tspan x="10" y="362"></tspan>
<tspan x="10" y="378">&gt; rbst-lite@2016.10.9 test /tmp/app/node_modules/rbst-lite</tspan>
<tspan x="10" y="394">&gt; utility2-istanbul cover index.js</tspan>
<tspan x="10" y="410"></tspan>
<tspan x="10" y="426"></tspan>
<tspan x="10" y="442">covering $ /home/travis/.nvm/versions/node/v7.0.0/bin/node /tmp/app/node_modules/rbst-lite/index\</tspan>
<tspan x="10" y="458">.js</tspan>
<tspan x="10" y="474"></tspan>
<tspan x="10" y="490">find 0</tspan>
<tspan x="10" y="506">{ key: 0,</tspan>
<tspan x="10" y="522">  data: 15,</tspan>
<tspan x="10" y="538">  left: </tspan>
<tspan x="10" y="554">   { key: -1,</tspan>
<tspan x="10" y="570">     data: 6,</tspan>
<tspan x="10" y="586">     left: null,</tspan>
<tspan x="10" y="602">     right: { key: -0.5, data: 11, left: null, right: [Object], size: 2 },</tspan>
<tspan x="10" y="618">     size: 3 },</tspan>
<tspan x="10" y="634">  right: </tspan>
<tspan x="10" y="650">   { key: null,</tspan>
<tspan x="10" y="666">     data: null,</tspan>
<tspan x="10" y="682">     left: { key: 2, data: 8, left: [Object], right: [Object], size: 9 },</tspan>
<tspan x="10" y="698">     right: { key: undefined, data: 17, left: [Object], right: null, size: 3 },</tspan>
<tspan x="10" y="714">     size: 13 },</tspan>
<tspan x="10" y="730">  size: 17 }</tspan>
<tspan x="10" y="746"></tspan>
<tspan x="10" y="762">find undefined</tspan>
<tspan x="10" y="778">null</tspan>
<tspan x="10" y="794"></tspan>
<tspan x="10" y="810">findInKeyRange [0, Infinity]</tspan>
<tspan x="10" y="826">[ 0, 0, 1, 2, 3 ]</tspan>
<tspan x="10" y="842"></tspan>
<tspan x="10" y="858">tree</tspan>
<tspan x="10" y="874">(ii,depth) key</tspan>
<tspan x="10" y="890">(0,1) * -1</tspan>
<tspan x="10" y="906">(1,2) * * -0.5</tspan>
<tspan x="10" y="922">(2,3) * * * 0</tspan>
<tspan x="10" y="938">(3,0) 0</tspan>
<tspan x="10" y="954">(4,3) * * * 1</tspan>
<tspan x="10" y="970">(5,2) * * 2</tspan>
<tspan x="10" y="986">(6,5) * * * * * 3</tspan>
<tspan x="10" y="1002">(7,6) * * * * * * false</tspan>
<tspan x="10" y="1018">(8,4) * * * * true</tspan>
<tspan x="10" y="1034">(9,5) * * * * * "-1"</tspan>
<tspan x="10" y="1050">(10,3) * * * "0"</tspan>
<tspan x="10" y="1066">(11,5) * * * * * "1"</tspan>
<tspan x="10" y="1082">(12,4) * * * * "a"</tspan>
<tspan x="10" y="1098">(13,5) * * * * * "b"</tspan>
<tspan x="10" y="1114">(14,1) * null</tspan>
<tspan x="10" y="1130">(15,3) * * * {}</tspan>
<tspan x="10" y="1146">(16,4) * * * * null</tspan>
<tspan x="10" y="1162">(17,5) * * * * * []</tspan>
<tspan x="10" y="1178">(18,2) * * undefined</tspan>
<tspan x="10" y="1194">height = 6</tspan>
<tspan x="10" y="1210">---------------|-----------|-----------|-----------|-----------|</tspan>
<tspan x="10" y="1226">File           |   % Stmts |% Branches |   % Funcs |   % Lines |</tspan>
<tspan x="10" y="1242">---------------|-----------|-----------|-----------|-----------|</tspan>
<tspan x="10" y="1258">   rbst-lite/  |     99.49 |        99 |       100 |     99.49 |</tspan>
<tspan x="10" y="1274">      index.js |     99.49 |        99 |       100 |     99.49 |</tspan>
<tspan x="10" y="1290">---------------|-----------|-----------|-----------|-----------|</tspan>
<tspan x="10" y="1306">All files      |     99.49 |        99 |       100 |     99.49 |</tspan>
<tspan x="10" y="1322">---------------|-----------|-----------|-----------|-----------|</tspan>
<tspan x="10" y="1338"></tspan>
<tspan x="10" y="1354">created coverage file:///tmp/app/node_modules/rbst-lite/tmp/build/coverage.html/index.html</tspan>
</text>
</svg>
