<svg height="3262" width="720" xmlns="http://www.w3.org/2000/svg">
<rect height="3262" fill="#555" width="720"></rect>
<text fill="#7f7" font-family="Courier New" font-size="12" xml:space="preserve">
<tspan x="10" y="26"></tspan>
<tspan x="10" y="42">&gt; rbst-lite@2016.10.10 test /home/travis/build/kaizhu256/node-rbst-lite</tspan>
<tspan x="10" y="58">&gt; export PORT=$(utility2 shServerPortRandom) &amp;&amp; utility2 test test.js</tspan>
<tspan x="10" y="74"></tspan>
<tspan x="10" y="90"></tspan>
<tspan x="10" y="106">[MODE_BUILD=npmTest] - 2016-10-27T18:41:58Z - npm-testing /home/travis/build/kaizhu256/node-rbst\</tspan>
<tspan x="10" y="122">-lite</tspan>
<tspan x="10" y="138"></tspan>
<tspan x="10" y="154"></tspan>
<tspan x="10" y="170">covering $ /home/travis/.nvm/versions/node/v7.0.0/bin/node /home/travis/build/kaizhu256/node-rbs\</tspan>
<tspan x="10" y="186">t-lite/test.js</tspan>
<tspan x="10" y="202"></tspan>
<tspan x="10" y="218">find 0</tspan>
<tspan x="10" y="234">{ key: 0,</tspan>
<tspan x="10" y="250">  data: 9,</tspan>
<tspan x="10" y="266">  left: null,</tspan>
<tspan x="10" y="282">  right: </tspan>
<tspan x="10" y="298">   { key: 0,</tspan>
<tspan x="10" y="314">     data: 16,</tspan>
<tspan x="10" y="330">     left: null,</tspan>
<tspan x="10" y="346">     right: { key: 1, data: 1, left: null, right: [Object], size: 2 },</tspan>
<tspan x="10" y="362">     size: 3 },</tspan>
<tspan x="10" y="378">  size: 4 }</tspan>
<tspan x="10" y="394"></tspan>
<tspan x="10" y="410">find undefined</tspan>
<tspan x="10" y="426">null</tspan>
<tspan x="10" y="442"></tspan>
<tspan x="10" y="458">findInKeyRange [0, Infinity]</tspan>
<tspan x="10" y="474">[ 0, 0, 1, 2, 3 ]</tspan>
<tspan x="10" y="490"></tspan>
<tspan x="10" y="506">tree</tspan>
<tspan x="10" y="522">(ii,depth,size) key</tspan>
<tspan x="10" y="538">(0,2,1) * * -1</tspan>
<tspan x="10" y="554">(1,1,6) * -0.5</tspan>
<tspan x="10" y="570">(2,2,4) * * 0</tspan>
<tspan x="10" y="586">(3,3,3) * * * 0</tspan>
<tspan x="10" y="602">(4,4,2) * * * * 1</tspan>
<tspan x="10" y="618">(5,5,1) * * * * * 2</tspan>
<tspan x="10" y="634">(6,0,19) 3</tspan>
<tspan x="10" y="650">(7,2,1) * * false</tspan>
<tspan x="10" y="666">(8,1,12) * true</tspan>
<tspan x="10" y="682">(9,3,5) * * * "-1"</tspan>
<tspan x="10" y="698">(10,5,1) * * * * * "0"</tspan>
<tspan x="10" y="714">(11,4,4) * * * * "1"</tspan>
<tspan x="10" y="730">(12,6,1) * * * * * * "a"</tspan>
<tspan x="10" y="746">(13,5,2) * * * * * "b"</tspan>
<tspan x="10" y="762">(14,2,10) * * null</tspan>
<tspan x="10" y="778">(15,3,4) * * * []</tspan>
<tspan x="10" y="794">(16,4,3) * * * * {}</tspan>
<tspan x="10" y="810">(17,5,2) * * * * * null</tspan>
<tspan x="10" y="826">(18,6,1) * * * * * * undefined</tspan>
<tspan x="10" y="842">height = 6</tspan>
<tspan x="10" y="858"></tspan>
<tspan x="10" y="874">tree</tspan>
<tspan x="10" y="890">(ii,depth,size) key</tspan>
<tspan x="10" y="906">(0,2,1) * * -1</tspan>
<tspan x="10" y="922">(1,1,6) * -0.5</tspan>
<tspan x="10" y="938">(2,2,4) * * 0</tspan>
<tspan x="10" y="954">(3,3,3) * * * 0</tspan>
<tspan x="10" y="970">(4,4,2) * * * * 1</tspan>
<tspan x="10" y="986">(5,5,1) * * * * * 2</tspan>
<tspan x="10" y="1002">(6,0,18) 3</tspan>
<tspan x="10" y="1018">(7,3,1) * * * false</tspan>
<tspan x="10" y="1034">(8,2,6) * * "-1"</tspan>
<tspan x="10" y="1050">(9,4,1) * * * * "0"</tspan>
<tspan x="10" y="1066">(10,3,4) * * * "1"</tspan>
<tspan x="10" y="1082">(11,5,1) * * * * * "a"</tspan>
<tspan x="10" y="1098">(12,4,2) * * * * "b"</tspan>
<tspan x="10" y="1114">(13,1,11) * null</tspan>
<tspan x="10" y="1130">(14,2,4) * * []</tspan>
<tspan x="10" y="1146">(15,3,3) * * * {}</tspan>
<tspan x="10" y="1162">(16,4,2) * * * * null</tspan>
<tspan x="10" y="1178">(17,5,1) * * * * * undefined</tspan>
<tspan x="10" y="1194">height = 5</tspan>
<tspan x="10" y="1210"></tspan>
<tspan x="10" y="1226">find 0</tspan>
<tspan x="10" y="1242">{ key: 0,</tspan>
<tspan x="10" y="1258">  data: 13,</tspan>
<tspan x="10" y="1274">  left: </tspan>
<tspan x="10" y="1290">   { key: -1,</tspan>
<tspan x="10" y="1306">     data: 5,</tspan>
<tspan x="10" y="1322">     left: null,</tspan>
<tspan x="10" y="1338">     right: { key: 0, data: 7, left: [Object], right: null, size: 2 },</tspan>
<tspan x="10" y="1354">     size: 3 },</tspan>
<tspan x="10" y="1370">  right: null,</tspan>
<tspan x="10" y="1386">  size: 4 }</tspan>
<tspan x="10" y="1402"></tspan>
<tspan x="10" y="1418">find undefined</tspan>
<tspan x="10" y="1434">null</tspan>
<tspan x="10" y="1450"></tspan>
<tspan x="10" y="1466">findInKeyRange [0, Infinity]</tspan>
<tspan x="10" y="1482">[ 0, 0, 1, 2, 3 ]</tspan>
<tspan x="10" y="1498"></tspan>
<tspan x="10" y="1514">tree</tspan>
<tspan x="10" y="1530">(ii,depth,size) key</tspan>
<tspan x="10" y="1546">(0,3,3) * * * -1</tspan>
<tspan x="10" y="1562">(1,5,1) * * * * * -0.5</tspan>
<tspan x="10" y="1578">(2,4,2) * * * * 0</tspan>
<tspan x="10" y="1594">(3,2,4) * * 0</tspan>
<tspan x="10" y="1610">(4,1,12) * 1</tspan>
<tspan x="10" y="1626">(5,4,1) * * * * 2</tspan>
<tspan x="10" y="1642">(6,3,2) * * * 3</tspan>
<tspan x="10" y="1658">(7,2,7) * * false</tspan>
<tspan x="10" y="1674">(8,4,3) * * * * true</tspan>
<tspan x="10" y="1690">(9,5,2) * * * * * "-1"</tspan>
<tspan x="10" y="1706">(10,6,1) * * * * * * "0"</tspan>
<tspan x="10" y="1722">(11,3,4) * * * "1"</tspan>
<tspan x="10" y="1738">(12,0,19) "a"</tspan>
<tspan x="10" y="1754">(13,1,6) * "b"</tspan>
<tspan x="10" y="1770">(14,2,5) * * null</tspan>
<tspan x="10" y="1786">(15,3,4) * * * null</tspan>
<tspan x="10" y="1802">(16,5,2) * * * * * []</tspan>
<tspan x="10" y="1818">(17,6,1) * * * * * * {}</tspan>
<tspan x="10" y="1834">(18,4,3) * * * * undefined</tspan>
<tspan x="10" y="1850">height = 6</tspan>
<tspan x="10" y="1866"></tspan>
<tspan x="10" y="1882">tree</tspan>
<tspan x="10" y="1898">(ii,depth,size) key</tspan>
<tspan x="10" y="1914">(0,3,3) * * * -1</tspan>
<tspan x="10" y="1930">(1,5,1) * * * * * -0.5</tspan>
<tspan x="10" y="1946">(2,4,2) * * * * 0</tspan>
<tspan x="10" y="1962">(3,2,4) * * 0</tspan>
<tspan x="10" y="1978">(4,1,11) * 1</tspan>
<tspan x="10" y="1994">(5,4,1) * * * * 2</tspan>
<tspan x="10" y="2010">(6,3,2) * * * 3</tspan>
<tspan x="10" y="2026">(7,2,6) * * false</tspan>
<tspan x="10" y="2042">(8,4,2) * * * * "-1"</tspan>
<tspan x="10" y="2058">(9,5,1) * * * * * "0"</tspan>
<tspan x="10" y="2074">(10,3,3) * * * "1"</tspan>
<tspan x="10" y="2090">(11,0,18) "a"</tspan>
<tspan x="10" y="2106">(12,1,6) * "b"</tspan>
<tspan x="10" y="2122">(13,2,5) * * null</tspan>
<tspan x="10" y="2138">(14,3,4) * * * null</tspan>
<tspan x="10" y="2154">(15,5,2) * * * * * []</tspan>
<tspan x="10" y="2170">(16,6,1) * * * * * * {}</tspan>
<tspan x="10" y="2186">(17,4,3) * * * * undefined</tspan>
<tspan x="10" y="2202">height = 6</tspan>
<tspan x="10" y="2218">[node test-case 1 of 2 passed] - testCase_rbst_default</tspan>
<tspan x="10" y="2234"></tspan>
<tspan x="10" y="2250">browserTest - created electron entry-page /home/travis/build/kaizhu256/node-rbst-lite/tmp/electr\</tspan>
<tspan x="10" y="2266">on.1580772e-2bed-405f-b767-c774837b205a.html</tspan>
<tspan x="10" y="2282"></tspan>
<tspan x="10" y="2298">[4229:1027/184159:ERROR:browser_main_loop.cc(231)] Running without the SUID sandbox! See https:/\</tspan>
<tspan x="10" y="2314">/chromium.googlesource.com/chromium/src/+/master/docs/linux_suid_sandbox_development.md for more\</tspan>
<tspan x="10" y="2330"> information on developing with the sandbox on.</tspan>
<tspan x="10" y="2346">Xlib:  extension "RANDR" missing on display ":99.0".</tspan>
<tspan x="10" y="2362"></tspan>
<tspan x="10" y="2378">/home/travis/build/kaizhu256/node-rbst-lite/node_modules/utility2/index.sh.js</tspan>
<tspan x="10" y="2394"> #1 Unused 'match0'.</tspan>
<tspan x="10" y="2410">    local.readme.replace(rgx, function (match0, match1, match2, ii, text) { // Line 865, Pos 41</tspan>
<tspan x="10" y="2426"></tspan>
<tspan x="10" y="2442">Xlib:  extension "RANDR" missing on display ":99.0".</tspan>
<tspan x="10" y="2458">[4229:1027/184159:WARNING:audio_manager.cc(314)] Multiple instances of AudioManager detected</tspan>
<tspan x="10" y="2474">[4229:1027/184159:WARNING:audio_manager.cc(275)] Multiple instances of AudioManager detected</tspan>
<tspan x="10" y="2490">[4250:1027/184200:ERROR:sandbox_linux.cc(343)] InitializeSandbox() called with multiple threads \</tspan>
<tspan x="10" y="2506">in process gpu-process. </tspan>
<tspan x="10" y="2522">[4229:1027/184200:ERROR:browser_gpu_channel_host_factory.cc(131)] Failed to create channel.</tspan>
<tspan x="10" y="2538"></tspan>
<tspan x="10" y="2554">browserTest - opened url file:///home/travis/build/kaizhu256/node-rbst-lite/tmp/build/doc.api.ht\</tspan>
<tspan x="10" y="2570">ml</tspan>
<tspan x="10" y="2586"></tspan>
<tspan x="10" y="2602"></tspan>
<tspan x="10" y="2618">browserTest - created screen-capture file:///home/travis/build/kaizhu256/node-rbst-lite/tmp/buil\</tspan>
<tspan x="10" y="2634">d/screen-capture.npmTest.browser._2Fhome_2Ftravis_2Fbuild_2Fkaizhu256_2Fnode-rbst-lite_2Ftmp_2Fb\</tspan>
<tspan x="10" y="2650">uild_2Fdoc.api.html.png</tspan>
<tspan x="10" y="2666"></tspan>
<tspan x="10" y="2682"></tspan>
<tspan x="10" y="2698">browserTest - exit-code 0 - file:///home/travis/build/kaizhu256/node-rbst-lite/tmp/build/doc.api\</tspan>
<tspan x="10" y="2714">.html</tspan>
<tspan x="10" y="2730"></tspan>
<tspan x="10" y="2746">[node test-case 2 of 2 passed] - testCase_build_doc</tspan>
<tspan x="10" y="2762">-------------------|-----------|-----------|-----------|-----------|</tspan>
<tspan x="10" y="2778">File               |   % Stmts |% Branches |   % Funcs |   % Lines |</tspan>
<tspan x="10" y="2794">-------------------|-----------|-----------|-----------|-----------|</tspan>
<tspan x="10" y="2810">   node-rbst-lite/ |       100 |       100 |       100 |       100 |</tspan>
<tspan x="10" y="2826">      index.js     |       100 |       100 |       100 |       100 |</tspan>
<tspan x="10" y="2842">      test.js      |       100 |       100 |       100 |       100 |</tspan>
<tspan x="10" y="2858">-------------------|-----------|-----------|-----------|-----------|</tspan>
<tspan x="10" y="2874">All files          |       100 |       100 |       100 |       100 |</tspan>
<tspan x="10" y="2890">-------------------|-----------|-----------|-----------|-----------|</tspan>
<tspan x="10" y="2906"></tspan>
<tspan x="10" y="2922">created coverage file:///home/travis/build/kaizhu256/node-rbst-lite/tmp/build/coverage.html/inde\</tspan>
<tspan x="10" y="2938">x.html</tspan>
<tspan x="10" y="2954"></tspan>
<tspan x="10" y="2970">/home/travis/build/kaizhu256/node-rbst-lite/node_modules/utility2/index.sh.js</tspan>
<tspan x="10" y="2986"> #1 Unused 'match0'.</tspan>
<tspan x="10" y="3002">    local.readme.replace(rgx, function (match0, match1, match2, ii, text) { // Line 865, Pos 41</tspan>
<tspan x="10" y="3018"></tspan>
<tspan x="10" y="3034"></tspan>
<tspan x="10" y="3050">-------------------------------------------------------</tspan>
<tspan x="10" y="3066">| test-report - npmTest - node - linux v7.0.0 - 2016-10-27T18:41:59.249Z</tspan>
<tspan x="10" y="3082">|    6068 ms            0 failed        2 passed      |</tspan>
<tspan x="10" y="3098">-------------------------------------------------------</tspan>
<tspan x="10" y="3114">| test-report - npmTestPublished - node - linux v7.0.0 - 2016-10-27T18:41:50.410Z</tspan>
<tspan x="10" y="3130">|    6450 ms            0 failed        2 passed      |</tspan>
<tspan x="10" y="3146">-------------------------------------------------------</tspan>
<tspan x="10" y="3162"></tspan>
<tspan x="10" y="3178">created test-report file:///home/travis/build/kaizhu256/node-rbst-lite/tmp/build/test-report.htm\</tspan>
<tspan x="10" y="3194">l</tspan>
<tspan x="10" y="3210"></tspan>
<tspan x="10" y="3226"></tspan>
<tspan x="10" y="3242">npmTest - 0 failed tests</tspan>
</text>
</svg>
