<svg height="1534" width="720" xmlns="http://www.w3.org/2000/svg">
<rect height="1534" fill="#555" width="720"></rect>
<text fill="#7f7" font-family="Courier New" font-size="12" xml:space="preserve">
<tspan x="10" y="26"></tspan>
<tspan x="10" y="42">&gt; rbst-lite@2016.10.9 test /home/travis/build/kaizhu256/node-rbst-lite</tspan>
<tspan x="10" y="58">&gt; export PORT=$(utility2 shServerPortRandom) &amp;&amp; utility2 test index.js</tspan>
<tspan x="10" y="74"></tspan>
<tspan x="10" y="90"></tspan>
<tspan x="10" y="106">[MODE_BUILD=npmTest] - 2016-10-27T16:28:43Z - npm-testing /home/travis/build/kaizhu256/node-rbst\</tspan>
<tspan x="10" y="122">-lite</tspan>
<tspan x="10" y="138"></tspan>
<tspan x="10" y="154"></tspan>
<tspan x="10" y="170">covering $ /home/travis/.nvm/versions/node/v7.0.0/bin/node /home/travis/build/kaizhu256/node-rbs\</tspan>
<tspan x="10" y="186">t-lite/index.js</tspan>
<tspan x="10" y="202"></tspan>
<tspan x="10" y="218">find 0</tspan>
<tspan x="10" y="234">{ key: 0,</tspan>
<tspan x="10" y="250">  data: 1,</tspan>
<tspan x="10" y="266">  left: </tspan>
<tspan x="10" y="282">   { key: -0.5,</tspan>
<tspan x="10" y="298">     data: 12,</tspan>
<tspan x="10" y="314">     left: { key: -1, data: 2, left: null, right: null, size: 1 },</tspan>
<tspan x="10" y="330">     right: null,</tspan>
<tspan x="10" y="346">     size: 2 },</tspan>
<tspan x="10" y="362">  right: { key: 0, data: 7, left: null, right: null, size: 1 },</tspan>
<tspan x="10" y="378">  size: 4 }</tspan>
<tspan x="10" y="394"></tspan>
<tspan x="10" y="410">find undefined</tspan>
<tspan x="10" y="426">null</tspan>
<tspan x="10" y="442"></tspan>
<tspan x="10" y="458">findInKeyRange [0, Infinity]</tspan>
<tspan x="10" y="474">[ 0, 0, 1, 2, 3 ]</tspan>
<tspan x="10" y="490"></tspan>
<tspan x="10" y="506">tree</tspan>
<tspan x="10" y="522">(ii,depth,size) key</tspan>
<tspan x="10" y="538">(0,5,1) * * * * * -1</tspan>
<tspan x="10" y="554">(1,4,2) * * * * -0.5</tspan>
<tspan x="10" y="570">(2,3,4) * * * 0</tspan>
<tspan x="10" y="586">(3,4,1) * * * * 0</tspan>
<tspan x="10" y="602">(4,2,9) * * 1</tspan>
<tspan x="10" y="618">(5,3,4) * * * 2</tspan>
<tspan x="10" y="634">(6,4,3) * * * * 3</tspan>
<tspan x="10" y="650">(7,5,2) * * * * * false</tspan>
<tspan x="10" y="666">(8,6,1) * * * * * * true</tspan>
<tspan x="10" y="682">(9,1,14) * "-1"</tspan>
<tspan x="10" y="698">(10,4,1) * * * * "0"</tspan>
<tspan x="10" y="714">(11,3,3) * * * "1"</tspan>
<tspan x="10" y="730">(12,4,1) * * * * "a"</tspan>
<tspan x="10" y="746">(13,2,4) * * "b"</tspan>
<tspan x="10" y="762">(14,0,19) null</tspan>
<tspan x="10" y="778">(15,1,4) * []</tspan>
<tspan x="10" y="794">(16,2,3) * * {}</tspan>
<tspan x="10" y="810">(17,3,2) * * * null</tspan>
<tspan x="10" y="826">(18,4,1) * * * * undefined</tspan>
<tspan x="10" y="842">height = 6</tspan>
<tspan x="10" y="858"></tspan>
<tspan x="10" y="874">tree</tspan>
<tspan x="10" y="890">(ii,depth,size) key</tspan>
<tspan x="10" y="906">(0,5,1) * * * * * -1</tspan>
<tspan x="10" y="922">(1,4,2) * * * * -0.5</tspan>
<tspan x="10" y="938">(2,3,4) * * * 0</tspan>
<tspan x="10" y="954">(3,4,1) * * * * 0</tspan>
<tspan x="10" y="970">(4,2,8) * * 1</tspan>
<tspan x="10" y="986">(5,3,3) * * * 2</tspan>
<tspan x="10" y="1002">(6,4,2) * * * * 3</tspan>
<tspan x="10" y="1018">(7,5,1) * * * * * false</tspan>
<tspan x="10" y="1034">(8,1,13) * "-1"</tspan>
<tspan x="10" y="1050">(9,4,1) * * * * "0"</tspan>
<tspan x="10" y="1066">(10,3,3) * * * "1"</tspan>
<tspan x="10" y="1082">(11,4,1) * * * * "a"</tspan>
<tspan x="10" y="1098">(12,2,4) * * "b"</tspan>
<tspan x="10" y="1114">(13,0,18) null</tspan>
<tspan x="10" y="1130">(14,1,4) * []</tspan>
<tspan x="10" y="1146">(15,2,3) * * {}</tspan>
<tspan x="10" y="1162">(16,3,2) * * * null</tspan>
<tspan x="10" y="1178">(17,4,1) * * * * undefined</tspan>
<tspan x="10" y="1194">height = 5</tspan>
<tspan x="10" y="1210">-------------------|-----------|-----------|-----------|-----------|</tspan>
<tspan x="10" y="1226">File               |   % Stmts |% Branches |   % Funcs |   % Lines |</tspan>
<tspan x="10" y="1242">-------------------|-----------|-----------|-----------|-----------|</tspan>
<tspan x="10" y="1258">   node-rbst-lite/ |     99.52 |     98.11 |       100 |     99.52 |</tspan>
<tspan x="10" y="1274">      index.js     |     99.52 |     98.11 |       100 |     99.52 |</tspan>
<tspan x="10" y="1290">-------------------|-----------|-----------|-----------|-----------|</tspan>
<tspan x="10" y="1306">All files          |     99.52 |     98.11 |       100 |     99.52 |</tspan>
<tspan x="10" y="1322">-------------------|-----------|-----------|-----------|-----------|</tspan>
<tspan x="10" y="1338"></tspan>
<tspan x="10" y="1354">created coverage file:///home/travis/build/kaizhu256/node-rbst-lite/tmp/build/coverage.html/inde\</tspan>
<tspan x="10" y="1370">x.html</tspan>
<tspan x="10" y="1386"></tspan>
<tspan x="10" y="1402">-------------------------------------------------------</tspan>
<tspan x="10" y="1418"></tspan>
<tspan x="10" y="1434"></tspan>
<tspan x="10" y="1450">created test-report file:///home/travis/build/kaizhu256/node-rbst-lite/tmp/build/test-report.htm\</tspan>
<tspan x="10" y="1466">l</tspan>
<tspan x="10" y="1482"></tspan>
<tspan x="10" y="1498"></tspan>
<tspan x="10" y="1514">npmTest - 0 failed tests</tspan>
</text>
</svg>
