<svg height="3294" width="720" xmlns="http://www.w3.org/2000/svg">
<rect height="3294" fill="#555" width="720"></rect>
<text fill="#7f7" font-family="Courier New" font-size="12" xml:space="preserve">
<tspan x="10" y="26"></tspan>
<tspan x="10" y="42">&gt; rbst-lite@2016.10.9 test /home/travis/build/kaizhu256/node-rbst-lite</tspan>
<tspan x="10" y="58">&gt; export PORT=$(utility2 shServerPortRandom) &amp;&amp; utility2 test test.js</tspan>
<tspan x="10" y="74"></tspan>
<tspan x="10" y="90"></tspan>
<tspan x="10" y="106">[MODE_BUILD=npmTest] - 2016-10-27T17:27:36Z - npm-testing /home/travis/build/kaizhu256/node-rbst\</tspan>
<tspan x="10" y="122">-lite</tspan>
<tspan x="10" y="138"></tspan>
<tspan x="10" y="154"></tspan>
<tspan x="10" y="170">covering $ /home/travis/.nvm/versions/node/v7.0.0/bin/node /home/travis/build/kaizhu256/node-rbs\</tspan>
<tspan x="10" y="186">t-lite/test.js</tspan>
<tspan x="10" y="202"></tspan>
<tspan x="10" y="218">find 0</tspan>
<tspan x="10" y="234">{ key: 0,</tspan>
<tspan x="10" y="250">  data: 3,</tspan>
<tspan x="10" y="266">  left: </tspan>
<tspan x="10" y="282">   { key: -1,</tspan>
<tspan x="10" y="298">     data: 16,</tspan>
<tspan x="10" y="314">     left: null,</tspan>
<tspan x="10" y="330">     right: { key: -0.5, data: 10, left: null, right: null, size: 1 },</tspan>
<tspan x="10" y="346">     size: 2 },</tspan>
<tspan x="10" y="362">  right: </tspan>
<tspan x="10" y="378">   { key: 3,</tspan>
<tspan x="10" y="394">     data: 6,</tspan>
<tspan x="10" y="410">     left: { key: 1, data: 12, left: [Object], right: [Object], size: 3 },</tspan>
<tspan x="10" y="426">     right: { key: false, data: 11, left: null, right: null, size: 1 },</tspan>
<tspan x="10" y="442">     size: 5 },</tspan>
<tspan x="10" y="458">  size: 8 }</tspan>
<tspan x="10" y="474"></tspan>
<tspan x="10" y="490">find undefined</tspan>
<tspan x="10" y="506">null</tspan>
<tspan x="10" y="522"></tspan>
<tspan x="10" y="538">findInKeyRange [0, Infinity]</tspan>
<tspan x="10" y="554">[ 0, 0, 1, 2, 3 ]</tspan>
<tspan x="10" y="570"></tspan>
<tspan x="10" y="586">tree</tspan>
<tspan x="10" y="602">(ii,depth,size) key</tspan>
<tspan x="10" y="618">(0,3,2) * * * -1</tspan>
<tspan x="10" y="634">(1,4,1) * * * * -0.5</tspan>
<tspan x="10" y="650">(2,2,8) * * 0</tspan>
<tspan x="10" y="666">(3,5,1) * * * * * 0</tspan>
<tspan x="10" y="682">(4,4,3) * * * * 1</tspan>
<tspan x="10" y="698">(5,5,1) * * * * * 2</tspan>
<tspan x="10" y="714">(6,3,5) * * * 3</tspan>
<tspan x="10" y="730">(7,4,1) * * * * false</tspan>
<tspan x="10" y="746">(8,1,14) * true</tspan>
<tspan x="10" y="762">(9,4,2) * * * * "-1"</tspan>
<tspan x="10" y="778">(10,5,1) * * * * * "0"</tspan>
<tspan x="10" y="794">(11,3,4) * * * "1"</tspan>
<tspan x="10" y="810">(12,4,1) * * * * "a"</tspan>
<tspan x="10" y="826">(13,2,5) * * "b"</tspan>
<tspan x="10" y="842">(14,0,19) null</tspan>
<tspan x="10" y="858">(15,1,4) * null</tspan>
<tspan x="10" y="874">(16,3,2) * * * {}</tspan>
<tspan x="10" y="890">(17,4,1) * * * * []</tspan>
<tspan x="10" y="906">(18,2,3) * * undefined</tspan>
<tspan x="10" y="922">height = 5</tspan>
<tspan x="10" y="938"></tspan>
<tspan x="10" y="954">tree</tspan>
<tspan x="10" y="970">(ii,depth,size) key</tspan>
<tspan x="10" y="986">(0,2,2) * * -1</tspan>
<tspan x="10" y="1002">(1,3,1) * * * -0.5</tspan>
<tspan x="10" y="1018">(2,1,13) * 0</tspan>
<tspan x="10" y="1034">(3,5,1) * * * * * 0</tspan>
<tspan x="10" y="1050">(4,4,3) * * * * 1</tspan>
<tspan x="10" y="1066">(5,5,1) * * * * * 2</tspan>
<tspan x="10" y="1082">(6,3,9) * * * 3</tspan>
<tspan x="10" y="1098">(7,6,1) * * * * * * false</tspan>
<tspan x="10" y="1114">(8,5,3) * * * * * "-1"</tspan>
<tspan x="10" y="1130">(9,6,1) * * * * * * "0"</tspan>
<tspan x="10" y="1146">(10,4,5) * * * * "1"</tspan>
<tspan x="10" y="1162">(11,5,1) * * * * * "a"</tspan>
<tspan x="10" y="1178">(12,2,10) * * "b"</tspan>
<tspan x="10" y="1194">(13,0,18) null</tspan>
<tspan x="10" y="1210">(14,1,4) * null</tspan>
<tspan x="10" y="1226">(15,3,2) * * * {}</tspan>
<tspan x="10" y="1242">(16,4,1) * * * * []</tspan>
<tspan x="10" y="1258">(17,2,3) * * undefined</tspan>
<tspan x="10" y="1274">height = 6</tspan>
<tspan x="10" y="1290"></tspan>
<tspan x="10" y="1306">find 0</tspan>
<tspan x="10" y="1322">{ key: 0,</tspan>
<tspan x="10" y="1338">  data: 6,</tspan>
<tspan x="10" y="1354">  left: </tspan>
<tspan x="10" y="1370">   { key: -1,</tspan>
<tspan x="10" y="1386">     data: 7,</tspan>
<tspan x="10" y="1402">     left: null,</tspan>
<tspan x="10" y="1418">     right: { key: -0.5, data: 8, left: null, right: null, size: 1 },</tspan>
<tspan x="10" y="1434">     size: 2 },</tspan>
<tspan x="10" y="1450">  right: </tspan>
<tspan x="10" y="1466">   { key: true,</tspan>
<tspan x="10" y="1482">     data: 0,</tspan>
<tspan x="10" y="1498">     left: { key: 3, data: 2, left: [Object], right: [Object], size: 5 },</tspan>
<tspan x="10" y="1514">     right: </tspan>
<tspan x="10" y="1530">      { key: null,</tspan>
<tspan x="10" y="1546">        data: null,</tspan>
<tspan x="10" y="1562">        left: [Object],</tspan>
<tspan x="10" y="1578">        right: [Object],</tspan>
<tspan x="10" y="1594">        size: 10 },</tspan>
<tspan x="10" y="1610">     size: 16 },</tspan>
<tspan x="10" y="1626">  size: 19 }</tspan>
<tspan x="10" y="1642"></tspan>
<tspan x="10" y="1658">find undefined</tspan>
<tspan x="10" y="1674">null</tspan>
<tspan x="10" y="1690"></tspan>
<tspan x="10" y="1706">findInKeyRange [0, Infinity]</tspan>
<tspan x="10" y="1722">[ 0, 0, 1, 2, 3 ]</tspan>
<tspan x="10" y="1738"></tspan>
<tspan x="10" y="1754">tree</tspan>
<tspan x="10" y="1770">(ii,depth,size) key</tspan>
<tspan x="10" y="1786">(0,1,2) * -1</tspan>
<tspan x="10" y="1802">(1,2,1) * * -0.5</tspan>
<tspan x="10" y="1818">(2,0,19) 0</tspan>
<tspan x="10" y="1834">(3,3,3) * * * 0</tspan>
<tspan x="10" y="1850">(4,5,1) * * * * * 1</tspan>
<tspan x="10" y="1866">(5,4,2) * * * * 2</tspan>
<tspan x="10" y="1882">(6,2,5) * * 3</tspan>
<tspan x="10" y="1898">(7,3,1) * * * false</tspan>
<tspan x="10" y="1914">(8,1,16) * true</tspan>
<tspan x="10" y="1930">(9,4,1) * * * * "-1"</tspan>
<tspan x="10" y="1946">(10,3,5) * * * "0"</tspan>
<tspan x="10" y="1962">(11,5,1) * * * * * "1"</tspan>
<tspan x="10" y="1978">(12,4,3) * * * * "a"</tspan>
<tspan x="10" y="1994">(13,5,1) * * * * * "b"</tspan>
<tspan x="10" y="2010">(14,2,10) * * null</tspan>
<tspan x="10" y="2026">(15,4,3) * * * * null</tspan>
<tspan x="10" y="2042">(16,5,2) * * * * * []</tspan>
<tspan x="10" y="2058">(17,6,1) * * * * * * {}</tspan>
<tspan x="10" y="2074">(18,3,4) * * * undefined</tspan>
<tspan x="10" y="2090">height = 6</tspan>
<tspan x="10" y="2106"></tspan>
<tspan x="10" y="2122">tree</tspan>
<tspan x="10" y="2138">(ii,depth,size) key</tspan>
<tspan x="10" y="2154">(0,1,2) * -1</tspan>
<tspan x="10" y="2170">(1,2,1) * * -0.5</tspan>
<tspan x="10" y="2186">(2,0,18) 0</tspan>
<tspan x="10" y="2202">(3,4,3) * * * * 0</tspan>
<tspan x="10" y="2218">(4,6,1) * * * * * * 1</tspan>
<tspan x="10" y="2234">(5,5,2) * * * * * 2</tspan>
<tspan x="10" y="2250">(6,3,6) * * * 3</tspan>
<tspan x="10" y="2266">(7,5,1) * * * * * false</tspan>
<tspan x="10" y="2282">(8,4,2) * * * * "-1"</tspan>
<tspan x="10" y="2298">(9,2,10) * * "0"</tspan>
<tspan x="10" y="2314">(10,4,1) * * * * "1"</tspan>
<tspan x="10" y="2330">(11,3,3) * * * "a"</tspan>
<tspan x="10" y="2346">(12,4,1) * * * * "b"</tspan>
<tspan x="10" y="2362">(13,1,15) * null</tspan>
<tspan x="10" y="2378">(14,3,3) * * * null</tspan>
<tspan x="10" y="2394">(15,4,2) * * * * []</tspan>
<tspan x="10" y="2410">(16,5,1) * * * * * {}</tspan>
<tspan x="10" y="2426">(17,2,4) * * undefined</tspan>
<tspan x="10" y="2442">height = 6</tspan>
<tspan x="10" y="2458">[node test-case 1 of 2 passed] - testCase_rbst_default</tspan>
<tspan x="10" y="2474"></tspan>
<tspan x="10" y="2490">browserTest - created electron entry-page /home/travis/build/kaizhu256/node-rbst-lite/tmp/electr\</tspan>
<tspan x="10" y="2506">on.158072ec-c634-4ac9-9620-f374e4969585.html</tspan>
<tspan x="10" y="2522"></tspan>
<tspan x="10" y="2538">[4110:1027/172737:ERROR:browser_main_loop.cc(231)] Running without the SUID sandbox! See https:/\</tspan>
<tspan x="10" y="2554">/chromium.googlesource.com/chromium/src/+/master/docs/linux_suid_sandbox_development.md for more\</tspan>
<tspan x="10" y="2570"> information on developing with the sandbox on.</tspan>
<tspan x="10" y="2586">Xlib:  extension "RANDR" missing on display ":99.0".</tspan>
<tspan x="10" y="2602">Xlib:  extension "RANDR" missing on display ":99.0".</tspan>
<tspan x="10" y="2618">[4110:1027/172738:WARNING:audio_manager.cc(314)] Multiple instances of AudioManager detected</tspan>
<tspan x="10" y="2634">[4110:1027/172738:WARNING:audio_manager.cc(275)] Multiple instances of AudioManager detected</tspan>
<tspan x="10" y="2650">[4134:1027/172738:ERROR:sandbox_linux.cc(343)] InitializeSandbox() called with multiple threads \</tspan>
<tspan x="10" y="2666">in process gpu-process. </tspan>
<tspan x="10" y="2682">[4110:1027/172738:ERROR:browser_gpu_channel_host_factory.cc(131)] Failed to create channel.</tspan>
<tspan x="10" y="2698"></tspan>
<tspan x="10" y="2714">browserTest - opened url file:///home/travis/build/kaizhu256/node-rbst-lite/tmp/build/doc.api.ht\</tspan>
<tspan x="10" y="2730">ml</tspan>
<tspan x="10" y="2746"></tspan>
<tspan x="10" y="2762"></tspan>
<tspan x="10" y="2778">browserTest - created screen-capture file:///home/travis/build/kaizhu256/node-rbst-lite/tmp/buil\</tspan>
<tspan x="10" y="2794">d/screen-capture.npmTest.browser._2Fhome_2Ftravis_2Fbuild_2Fkaizhu256_2Fnode-rbst-lite_2Ftmp_2Fb\</tspan>
<tspan x="10" y="2810">uild_2Fdoc.api.html.png</tspan>
<tspan x="10" y="2826"></tspan>
<tspan x="10" y="2842"></tspan>
<tspan x="10" y="2858">browserTest - exit-code 0 - file:///home/travis/build/kaizhu256/node-rbst-lite/tmp/build/doc.api\</tspan>
<tspan x="10" y="2874">.html</tspan>
<tspan x="10" y="2890"></tspan>
<tspan x="10" y="2906">[node test-case 2 of 2 passed] - testCase_build_doc</tspan>
<tspan x="10" y="2922">-------------------|-----------|-----------|-----------|-----------|</tspan>
<tspan x="10" y="2938">File               |   % Stmts |% Branches |   % Funcs |   % Lines |</tspan>
<tspan x="10" y="2954">-------------------|-----------|-----------|-----------|-----------|</tspan>
<tspan x="10" y="2970">   node-rbst-lite/ |       100 |       100 |       100 |       100 |</tspan>
<tspan x="10" y="2986">      index.js     |       100 |       100 |       100 |       100 |</tspan>
<tspan x="10" y="3002">      test.js      |       100 |       100 |       100 |       100 |</tspan>
<tspan x="10" y="3018">-------------------|-----------|-----------|-----------|-----------|</tspan>
<tspan x="10" y="3034">All files          |       100 |       100 |       100 |       100 |</tspan>
<tspan x="10" y="3050">-------------------|-----------|-----------|-----------|-----------|</tspan>
<tspan x="10" y="3066"></tspan>
<tspan x="10" y="3082">created coverage file:///home/travis/build/kaizhu256/node-rbst-lite/tmp/build/coverage.html/inde\</tspan>
<tspan x="10" y="3098">x.html</tspan>
<tspan x="10" y="3114"></tspan>
<tspan x="10" y="3130">-------------------------------------------------------</tspan>
<tspan x="10" y="3146">| test-report - npmTest - node - linux v7.0.0 - 2016-10-27T17:27:37.045Z</tspan>
<tspan x="10" y="3162">|    6524 ms            0 failed        2 passed      |</tspan>
<tspan x="10" y="3178">-------------------------------------------------------</tspan>
<tspan x="10" y="3194"></tspan>
<tspan x="10" y="3210">created test-report file:///home/travis/build/kaizhu256/node-rbst-lite/tmp/build/test-report.htm\</tspan>
<tspan x="10" y="3226">l</tspan>
<tspan x="10" y="3242"></tspan>
<tspan x="10" y="3258"></tspan>
<tspan x="10" y="3274">npmTest - 0 failed tests</tspan>
</text>
</svg>
