<svg height="1614" width="720" xmlns="http://www.w3.org/2000/svg">
<rect height="1614" fill="#555" width="720"></rect>
<text fill="#7f7" font-family="Courier New" font-size="12" xml:space="preserve">
<tspan x="10" y="26"></tspan>
<tspan x="10" y="42">&gt; rbst-lite@2016.10.9 test /home/travis/build/kaizhu256/node-rbst-lite</tspan>
<tspan x="10" y="58">&gt; export PORT=$(utility2 shServerPortRandom) &amp;&amp; utility2 test index.js</tspan>
<tspan x="10" y="74"></tspan>
<tspan x="10" y="90"></tspan>
<tspan x="10" y="106">[MODE_BUILD=npmTest] - 2016-10-27T16:32:06Z - npm-testing /home/travis/build/kaizhu256/node-rbst\</tspan>
<tspan x="10" y="122">-lite</tspan>
<tspan x="10" y="138"></tspan>
<tspan x="10" y="154"></tspan>
<tspan x="10" y="170">covering $ /home/travis/.nvm/versions/node/v7.0.0/bin/node /home/travis/build/kaizhu256/node-rbs\</tspan>
<tspan x="10" y="186">t-lite/index.js</tspan>
<tspan x="10" y="202"></tspan>
<tspan x="10" y="218">find 0</tspan>
<tspan x="10" y="234">{ key: 0,</tspan>
<tspan x="10" y="250">  data: 0,</tspan>
<tspan x="10" y="266">  left: </tspan>
<tspan x="10" y="282">   { key: -1,</tspan>
<tspan x="10" y="298">     data: 16,</tspan>
<tspan x="10" y="314">     left: null,</tspan>
<tspan x="10" y="330">     right: { key: -0.5, data: 8, left: null, right: null, size: 1 },</tspan>
<tspan x="10" y="346">     size: 2 },</tspan>
<tspan x="10" y="362">  right: </tspan>
<tspan x="10" y="378">   { key: 0,</tspan>
<tspan x="10" y="394">     data: 1,</tspan>
<tspan x="10" y="410">     left: null,</tspan>
<tspan x="10" y="426">     right: { key: 1, data: 7, left: null, right: null, size: 1 },</tspan>
<tspan x="10" y="442">     size: 2 },</tspan>
<tspan x="10" y="458">  size: 5 }</tspan>
<tspan x="10" y="474"></tspan>
<tspan x="10" y="490">find undefined</tspan>
<tspan x="10" y="506">null</tspan>
<tspan x="10" y="522"></tspan>
<tspan x="10" y="538">findInKeyRange [0, Infinity]</tspan>
<tspan x="10" y="554">[ 0, 0, 1, 2, 3 ]</tspan>
<tspan x="10" y="570"></tspan>
<tspan x="10" y="586">tree</tspan>
<tspan x="10" y="602">(ii,depth,size) key</tspan>
<tspan x="10" y="618">(0,2,2) * * -1</tspan>
<tspan x="10" y="634">(1,3,1) * * * -0.5</tspan>
<tspan x="10" y="650">(2,1,5) * 0</tspan>
<tspan x="10" y="666">(3,2,2) * * 0</tspan>
<tspan x="10" y="682">(4,3,1) * * * 1</tspan>
<tspan x="10" y="698">(5,0,19) 2</tspan>
<tspan x="10" y="714">(6,3,1) * * * 3</tspan>
<tspan x="10" y="730">(7,2,4) * * false</tspan>
<tspan x="10" y="746">(8,3,2) * * * true</tspan>
<tspan x="10" y="762">(9,4,1) * * * * "-1"</tspan>
<tspan x="10" y="778">(10,1,13) * "0"</tspan>
<tspan x="10" y="794">(11,5,1) * * * * * "1"</tspan>
<tspan x="10" y="810">(12,4,2) * * * * "a"</tspan>
<tspan x="10" y="826">(13,3,7) * * * "b"</tspan>
<tspan x="10" y="842">(14,4,4) * * * * null</tspan>
<tspan x="10" y="858">(15,5,3) * * * * * null</tspan>
<tspan x="10" y="874">(16,6,2) * * * * * * {}</tspan>
<tspan x="10" y="890">(17,7,1) * * * * * * * []</tspan>
<tspan x="10" y="906">(18,2,8) * * undefined</tspan>
<tspan x="10" y="922">height = 7</tspan>
<tspan x="10" y="938"></tspan>
<tspan x="10" y="954">tree</tspan>
<tspan x="10" y="970">(ii,depth,size) key</tspan>
<tspan x="10" y="986">(0,2,2) * * -1</tspan>
<tspan x="10" y="1002">(1,3,1) * * * -0.5</tspan>
<tspan x="10" y="1018">(2,1,5) * 0</tspan>
<tspan x="10" y="1034">(3,2,2) * * 0</tspan>
<tspan x="10" y="1050">(4,3,1) * * * 1</tspan>
<tspan x="10" y="1066">(5,0,18) 2</tspan>
<tspan x="10" y="1082">(6,3,1) * * * 3</tspan>
<tspan x="10" y="1098">(7,2,3) * * false</tspan>
<tspan x="10" y="1114">(8,3,1) * * * "-1"</tspan>
<tspan x="10" y="1130">(9,1,12) * "0"</tspan>
<tspan x="10" y="1146">(10,5,1) * * * * * "1"</tspan>
<tspan x="10" y="1162">(11,4,2) * * * * "a"</tspan>
<tspan x="10" y="1178">(12,3,7) * * * "b"</tspan>
<tspan x="10" y="1194">(13,4,4) * * * * null</tspan>
<tspan x="10" y="1210">(14,5,3) * * * * * null</tspan>
<tspan x="10" y="1226">(15,6,2) * * * * * * {}</tspan>
<tspan x="10" y="1242">(16,7,1) * * * * * * * []</tspan>
<tspan x="10" y="1258">(17,2,8) * * undefined</tspan>
<tspan x="10" y="1274">height = 7</tspan>
<tspan x="10" y="1290">-------------------|-----------|-----------|-----------|-----------|</tspan>
<tspan x="10" y="1306">File               |   % Stmts |% Branches |   % Funcs |   % Lines |</tspan>
<tspan x="10" y="1322">-------------------|-----------|-----------|-----------|-----------|</tspan>
<tspan x="10" y="1338">   node-rbst-lite/ |       100 |       100 |       100 |       100 |</tspan>
<tspan x="10" y="1354">      index.js     |       100 |       100 |       100 |       100 |</tspan>
<tspan x="10" y="1370">-------------------|-----------|-----------|-----------|-----------|</tspan>
<tspan x="10" y="1386">All files          |       100 |       100 |       100 |       100 |</tspan>
<tspan x="10" y="1402">-------------------|-----------|-----------|-----------|-----------|</tspan>
<tspan x="10" y="1418"></tspan>
<tspan x="10" y="1434">created coverage file:///home/travis/build/kaizhu256/node-rbst-lite/tmp/build/coverage.html/inde\</tspan>
<tspan x="10" y="1450">x.html</tspan>
<tspan x="10" y="1466"></tspan>
<tspan x="10" y="1482">-------------------------------------------------------</tspan>
<tspan x="10" y="1498"></tspan>
<tspan x="10" y="1514"></tspan>
<tspan x="10" y="1530">created test-report file:///home/travis/build/kaizhu256/node-rbst-lite/tmp/build/test-report.htm\</tspan>
<tspan x="10" y="1546">l</tspan>
<tspan x="10" y="1562"></tspan>
<tspan x="10" y="1578"></tspan>
<tspan x="10" y="1594">npmTest - 0 failed tests</tspan>
</text>
</svg>
