<svg height="3406" width="720" xmlns="http://www.w3.org/2000/svg">
<rect height="3406" fill="#555" width="720"></rect>
<text fill="#7f7" font-family="Courier New" font-size="12" xml:space="preserve">
<tspan x="10" y="26"></tspan>
<tspan x="10" y="42">[MODE_BUILD=npmTestPublished] - 2016-10-27T18:48:18Z - npm-testing published-package rbst-lite</tspan>
<tspan x="10" y="58"></tspan>
<tspan x="10" y="74">/tmp/app</tspan>
<tspan x="10" y="90">└── rbst-lite@2016.10.10 </tspan>
<tspan x="10" y="106"></tspan>
<tspan x="10" y="122">npm WARN enoent ENOENT: no such file or directory, open '/tmp/app/package.json'</tspan>
<tspan x="10" y="138">npm WARN app No description</tspan>
<tspan x="10" y="154">npm WARN app No repository field.</tspan>
<tspan x="10" y="170">npm WARN app No README data</tspan>
<tspan x="10" y="186">npm WARN app No license field.</tspan>
<tspan x="10" y="202"></tspan>
<tspan x="10" y="218">&gt; electron-lite@2016.8.1 postinstall /tmp/app/node_modules/rbst-lite/node_modules/electron-lite</tspan>
<tspan x="10" y="234">&gt; ./index.sh shNpmPostinstall</tspan>
<tspan x="10" y="250"></tspan>
<tspan x="10" y="266">rbst-lite@2016.10.10 /tmp/app/node_modules/rbst-lite</tspan>
<tspan x="10" y="282">├── electron-lite@2016.8.1  (git://github.com/kaizhu256/node-electron-lite.git#b1a242305e7af3fe9\</tspan>
<tspan x="10" y="298">9c517eb882f1b9f55b25c80)</tspan>
<tspan x="10" y="314">└── utility2@2016.10.2  (git://github.com/kaizhu256/node-utility2.git#fadc639391d2785585d91fc386\</tspan>
<tspan x="10" y="330">608f946384e28d)</tspan>
<tspan x="10" y="346"></tspan>
<tspan x="10" y="362"></tspan>
<tspan x="10" y="378">&gt; rbst-lite@2016.10.10 test /tmp/app/node_modules/rbst-lite</tspan>
<tspan x="10" y="394">&gt; export PORT=$(utility2 shServerPortRandom) &amp;&amp; utility2 test test.js</tspan>
<tspan x="10" y="410"></tspan>
<tspan x="10" y="426"></tspan>
<tspan x="10" y="442">[MODE_BUILD=npmTestPublished] - 2016-10-27T18:48:23Z - npm-testing /tmp/app/node_modules/rbst-li\</tspan>
<tspan x="10" y="458">te</tspan>
<tspan x="10" y="474"></tspan>
<tspan x="10" y="490"></tspan>
<tspan x="10" y="506">covering $ /home/travis/.nvm/versions/node/v7.0.0/bin/node /tmp/app/node_modules/rbst-lite/test.\</tspan>
<tspan x="10" y="522">js</tspan>
<tspan x="10" y="538"></tspan>
<tspan x="10" y="554">find 0</tspan>
<tspan x="10" y="570">{ key: 0,</tspan>
<tspan x="10" y="586">  data: 10,</tspan>
<tspan x="10" y="602">  left: </tspan>
<tspan x="10" y="618">   { key: -1,</tspan>
<tspan x="10" y="634">     data: 16,</tspan>
<tspan x="10" y="650">     left: null,</tspan>
<tspan x="10" y="666">     right: { key: 0, data: 3, left: [Object], right: null, size: 2 },</tspan>
<tspan x="10" y="682">     size: 3 },</tspan>
<tspan x="10" y="698">  right: { key: 1, data: 4, left: null, right: null, size: 1 },</tspan>
<tspan x="10" y="714">  size: 5 }</tspan>
<tspan x="10" y="730"></tspan>
<tspan x="10" y="746">find undefined</tspan>
<tspan x="10" y="762">null</tspan>
<tspan x="10" y="778"></tspan>
<tspan x="10" y="794">findInKeyRange [0, Infinity]</tspan>
<tspan x="10" y="810">[ 0, 0, 1, 2, 3 ]</tspan>
<tspan x="10" y="826"></tspan>
<tspan x="10" y="842">tree</tspan>
<tspan x="10" y="858">(ii,depth,size) key</tspan>
<tspan x="10" y="874">(0,2,3) * * -1</tspan>
<tspan x="10" y="890">(1,4,1) * * * * -0.5</tspan>
<tspan x="10" y="906">(2,3,2) * * * 0</tspan>
<tspan x="10" y="922">(3,1,5) * 0</tspan>
<tspan x="10" y="938">(4,2,1) * * 1</tspan>
<tspan x="10" y="954">(5,0,19) 2</tspan>
<tspan x="10" y="970">(6,1,13) * 3</tspan>
<tspan x="10" y="986">(7,3,1) * * * false</tspan>
<tspan x="10" y="1002">(8,2,12) * * true</tspan>
<tspan x="10" y="1018">(9,5,1) * * * * * "-1"</tspan>
<tspan x="10" y="1034">(10,4,2) * * * * "0"</tspan>
<tspan x="10" y="1050">(11,3,10) * * * "1"</tspan>
<tspan x="10" y="1066">(12,5,2) * * * * * "a"</tspan>
<tspan x="10" y="1082">(13,6,1) * * * * * * "b"</tspan>
<tspan x="10" y="1098">(14,4,7) * * * * null</tspan>
<tspan x="10" y="1114">(15,6,3) * * * * * * []</tspan>
<tspan x="10" y="1130">(16,7,2) * * * * * * * {}</tspan>
<tspan x="10" y="1146">(17,8,1) * * * * * * * * null</tspan>
<tspan x="10" y="1162">(18,5,4) * * * * * undefined</tspan>
<tspan x="10" y="1178">height = 8</tspan>
<tspan x="10" y="1194"></tspan>
<tspan x="10" y="1210">tree</tspan>
<tspan x="10" y="1226">(ii,depth,size) key</tspan>
<tspan x="10" y="1242">(0,2,3) * * -1</tspan>
<tspan x="10" y="1258">(1,4,1) * * * * -0.5</tspan>
<tspan x="10" y="1274">(2,3,2) * * * 0</tspan>
<tspan x="10" y="1290">(3,1,5) * 0</tspan>
<tspan x="10" y="1306">(4,2,1) * * 1</tspan>
<tspan x="10" y="1322">(5,0,18) 2</tspan>
<tspan x="10" y="1338">(6,1,12) * 3</tspan>
<tspan x="10" y="1354">(7,5,1) * * * * * false</tspan>
<tspan x="10" y="1370">(8,4,2) * * * * "-1"</tspan>
<tspan x="10" y="1386">(9,3,3) * * * "0"</tspan>
<tspan x="10" y="1402">(10,2,11) * * "1"</tspan>
<tspan x="10" y="1418">(11,4,2) * * * * "a"</tspan>
<tspan x="10" y="1434">(12,5,1) * * * * * "b"</tspan>
<tspan x="10" y="1450">(13,3,7) * * * null</tspan>
<tspan x="10" y="1466">(14,5,3) * * * * * []</tspan>
<tspan x="10" y="1482">(15,6,2) * * * * * * {}</tspan>
<tspan x="10" y="1498">(16,7,1) * * * * * * * null</tspan>
<tspan x="10" y="1514">(17,4,4) * * * * undefined</tspan>
<tspan x="10" y="1530">height = 7</tspan>
<tspan x="10" y="1546"></tspan>
<tspan x="10" y="1562">find 0</tspan>
<tspan x="10" y="1578">{ key: 0,</tspan>
<tspan x="10" y="1594">  data: 11,</tspan>
<tspan x="10" y="1610">  left: </tspan>
<tspan x="10" y="1626">   { key: 0,</tspan>
<tspan x="10" y="1642">     data: 7,</tspan>
<tspan x="10" y="1658">     left: { key: -0.5, data: 15, left: null, right: null, size: 1 },</tspan>
<tspan x="10" y="1674">     right: null,</tspan>
<tspan x="10" y="1690">     size: 2 },</tspan>
<tspan x="10" y="1706">  right: </tspan>
<tspan x="10" y="1722">   { key: true,</tspan>
<tspan x="10" y="1738">     data: 0,</tspan>
<tspan x="10" y="1754">     left: { key: 2, data: 1, left: [Object], right: [Object], size: 4 },</tspan>
<tspan x="10" y="1770">     right: { key: '-1', data: 9, left: null, right: null, size: 1 },</tspan>
<tspan x="10" y="1786">     size: 6 },</tspan>
<tspan x="10" y="1802">  size: 9 }</tspan>
<tspan x="10" y="1818"></tspan>
<tspan x="10" y="1834">find undefined</tspan>
<tspan x="10" y="1850">null</tspan>
<tspan x="10" y="1866"></tspan>
<tspan x="10" y="1882">findInKeyRange [0, Infinity]</tspan>
<tspan x="10" y="1898">[ 0, 0, 1, 2, 3 ]</tspan>
<tspan x="10" y="1914"></tspan>
<tspan x="10" y="1930">tree</tspan>
<tspan x="10" y="1946">(ii,depth,size) key</tspan>
<tspan x="10" y="1962">(0,0,19) -1</tspan>
<tspan x="10" y="1978">(1,4,1) * * * * -0.5</tspan>
<tspan x="10" y="1994">(2,3,2) * * * 0</tspan>
<tspan x="10" y="2010">(3,2,9) * * 0</tspan>
<tspan x="10" y="2026">(4,5,1) * * * * * 1</tspan>
<tspan x="10" y="2042">(5,4,4) * * * * 2</tspan>
<tspan x="10" y="2058">(6,6,1) * * * * * * 3</tspan>
<tspan x="10" y="2074">(7,5,2) * * * * * false</tspan>
<tspan x="10" y="2090">(8,3,6) * * * true</tspan>
<tspan x="10" y="2106">(9,4,1) * * * * "-1"</tspan>
<tspan x="10" y="2122">(10,1,18) * "0"</tspan>
<tspan x="10" y="2138">(11,4,2) * * * * "1"</tspan>
<tspan x="10" y="2154">(12,5,1) * * * * * "a"</tspan>
<tspan x="10" y="2170">(13,3,3) * * * "b"</tspan>
<tspan x="10" y="2186">(14,2,8) * * null</tspan>
<tspan x="10" y="2202">(15,3,4) * * * []</tspan>
<tspan x="10" y="2218">(16,4,3) * * * * null</tspan>
<tspan x="10" y="2234">(17,5,2) * * * * * {}</tspan>
<tspan x="10" y="2250">(18,6,1) * * * * * * undefined</tspan>
<tspan x="10" y="2266">height = 6</tspan>
<tspan x="10" y="2282"></tspan>
<tspan x="10" y="2298">tree</tspan>
<tspan x="10" y="2314">(ii,depth,size) key</tspan>
<tspan x="10" y="2330">(0,0,18) -1</tspan>
<tspan x="10" y="2346">(1,4,1) * * * * -0.5</tspan>
<tspan x="10" y="2362">(2,3,2) * * * 0</tspan>
<tspan x="10" y="2378">(3,2,8) * * 0</tspan>
<tspan x="10" y="2394">(4,4,1) * * * * 1</tspan>
<tspan x="10" y="2410">(5,3,5) * * * 2</tspan>
<tspan x="10" y="2426">(6,5,1) * * * * * 3</tspan>
<tspan x="10" y="2442">(7,4,3) * * * * false</tspan>
<tspan x="10" y="2458">(8,5,1) * * * * * "-1"</tspan>
<tspan x="10" y="2474">(9,1,17) * "0"</tspan>
<tspan x="10" y="2490">(10,4,2) * * * * "1"</tspan>
<tspan x="10" y="2506">(11,5,1) * * * * * "a"</tspan>
<tspan x="10" y="2522">(12,3,3) * * * "b"</tspan>
<tspan x="10" y="2538">(13,2,8) * * null</tspan>
<tspan x="10" y="2554">(14,3,4) * * * []</tspan>
<tspan x="10" y="2570">(15,4,3) * * * * null</tspan>
<tspan x="10" y="2586">(16,5,2) * * * * * {}</tspan>
<tspan x="10" y="2602">(17,6,1) * * * * * * undefined</tspan>
<tspan x="10" y="2618">height = 6</tspan>
<tspan x="10" y="2634">[node test-case 1 of 2 passed] - testCase_rbst_default</tspan>
<tspan x="10" y="2650"></tspan>
<tspan x="10" y="2666">browserTest - created electron entry-page /tmp/app/node_modules/rbst-lite/tmp/electron.1580778b-\</tspan>
<tspan x="10" y="2682">fcea-4e88-8de6-8a80255530dc.html</tspan>
<tspan x="10" y="2698"></tspan>
<tspan x="10" y="2714">[3997:1027/184823:ERROR:browser_main_loop.cc(231)] Running without the SUID sandbox! See https:/\</tspan>
<tspan x="10" y="2730">/chromium.googlesource.com/chromium/src/+/master/docs/linux_suid_sandbox_development.md for more\</tspan>
<tspan x="10" y="2746"> information on developing with the sandbox on.</tspan>
<tspan x="10" y="2762">Xlib:  extension "RANDR" missing on display ":99.0".</tspan>
<tspan x="10" y="2778">Xlib:  extension "RANDR" missing on display ":99.0".</tspan>
<tspan x="10" y="2794">[3997:1027/184824:WARNING:audio_manager.cc(314)] Multiple instances of AudioManager detected</tspan>
<tspan x="10" y="2810">[3997:1027/184824:WARNING:audio_manager.cc(275)] Multiple instances of AudioManager detected</tspan>
<tspan x="10" y="2826">[4019:1027/184824:ERROR:sandbox_linux.cc(343)] InitializeSandbox() called with multiple threads \</tspan>
<tspan x="10" y="2842">in process gpu-process. </tspan>
<tspan x="10" y="2858">[3997:1027/184824:ERROR:browser_gpu_channel_host_factory.cc(131)] Failed to create channel.</tspan>
<tspan x="10" y="2874"></tspan>
<tspan x="10" y="2890">browserTest - opened url file:///tmp/app/node_modules/rbst-lite/tmp/build/doc.api.html</tspan>
<tspan x="10" y="2906"></tspan>
<tspan x="10" y="2922"></tspan>
<tspan x="10" y="2938">browserTest - created screen-capture file:///tmp/app/node_modules/rbst-lite/tmp/build/screen-cap\</tspan>
<tspan x="10" y="2954">ture.npmTestPublished.browser._2Ftmp_2Fapp_2Fnode_modules_2Frbst-lite_2Ftmp_2Fbuild_2Fdoc.api.ht\</tspan>
<tspan x="10" y="2970">ml.png</tspan>
<tspan x="10" y="2986"></tspan>
<tspan x="10" y="3002"></tspan>
<tspan x="10" y="3018">browserTest - exit-code 0 - file:///tmp/app/node_modules/rbst-lite/tmp/build/doc.api.html</tspan>
<tspan x="10" y="3034"></tspan>
<tspan x="10" y="3050">[node test-case 2 of 2 passed] - testCase_build_doc</tspan>
<tspan x="10" y="3066">---------------|-----------|-----------|-----------|-----------|</tspan>
<tspan x="10" y="3082">File           |   % Stmts |% Branches |   % Funcs |   % Lines |</tspan>
<tspan x="10" y="3098">---------------|-----------|-----------|-----------|-----------|</tspan>
<tspan x="10" y="3114">   rbst-lite/  |       100 |       100 |       100 |       100 |</tspan>
<tspan x="10" y="3130">      index.js |       100 |       100 |       100 |       100 |</tspan>
<tspan x="10" y="3146">      test.js  |       100 |       100 |       100 |       100 |</tspan>
<tspan x="10" y="3162">---------------|-----------|-----------|-----------|-----------|</tspan>
<tspan x="10" y="3178">All files      |       100 |       100 |       100 |       100 |</tspan>
<tspan x="10" y="3194">---------------|-----------|-----------|-----------|-----------|</tspan>
<tspan x="10" y="3210"></tspan>
<tspan x="10" y="3226">created coverage file:///tmp/app/node_modules/rbst-lite/tmp/build/coverage.html/index.html</tspan>
<tspan x="10" y="3242"></tspan>
<tspan x="10" y="3258">-------------------------------------------------------</tspan>
<tspan x="10" y="3274">| test-report - npmTestPublished - node - linux v7.0.0 - 2016-10-27T18:48:23.517Z</tspan>
<tspan x="10" y="3290">|    6483 ms            0 failed        2 passed      |</tspan>
<tspan x="10" y="3306">-------------------------------------------------------</tspan>
<tspan x="10" y="3322"></tspan>
<tspan x="10" y="3338">created test-report file:///tmp/app/node_modules/rbst-lite/tmp/build/test-report.html</tspan>
<tspan x="10" y="3354"></tspan>
<tspan x="10" y="3370"></tspan>
<tspan x="10" y="3386">npmTestPublished - 0 failed tests</tspan>
</text>
</svg>
