<svg height="3486" width="720" xmlns="http://www.w3.org/2000/svg">
<rect height="3486" fill="#555" width="720"></rect>
<text fill="#7f7" font-family="Courier New" font-size="12" xml:space="preserve">
<tspan x="10" y="26"></tspan>
<tspan x="10" y="42">[MODE_BUILD=npmTestPublished] - 2016-10-27T18:45:49Z - npm-testing published-package rbst-lite</tspan>
<tspan x="10" y="58"></tspan>
<tspan x="10" y="74">/tmp/app</tspan>
<tspan x="10" y="90">└── rbst-lite@2016.10.10 </tspan>
<tspan x="10" y="106"></tspan>
<tspan x="10" y="122">npm WARN enoent ENOENT: no such file or directory, open '/tmp/app/package.json'</tspan>
<tspan x="10" y="138">npm WARN app No description</tspan>
<tspan x="10" y="154">npm WARN app No repository field.</tspan>
<tspan x="10" y="170">npm WARN app No README data</tspan>
<tspan x="10" y="186">npm WARN app No license field.</tspan>
<tspan x="10" y="202"></tspan>
<tspan x="10" y="218">&gt; electron-lite@2016.8.1 postinstall /tmp/app/node_modules/rbst-lite/node_modules/electron-lite</tspan>
<tspan x="10" y="234">&gt; ./index.sh shNpmPostinstall</tspan>
<tspan x="10" y="250"></tspan>
<tspan x="10" y="266">rbst-lite@2016.10.10 /tmp/app/node_modules/rbst-lite</tspan>
<tspan x="10" y="282">├── electron-lite@2016.8.1  (git://github.com/kaizhu256/node-electron-lite.git#b1a242305e7af3fe9\</tspan>
<tspan x="10" y="298">9c517eb882f1b9f55b25c80)</tspan>
<tspan x="10" y="314">└── utility2@2016.10.2  (git://github.com/kaizhu256/node-utility2.git#580a22575cc6a3db27e3e75fb5\</tspan>
<tspan x="10" y="330">18d37f7644362e)</tspan>
<tspan x="10" y="346"></tspan>
<tspan x="10" y="362"></tspan>
<tspan x="10" y="378">&gt; rbst-lite@2016.10.10 test /tmp/app/node_modules/rbst-lite</tspan>
<tspan x="10" y="394">&gt; export PORT=$(utility2 shServerPortRandom) &amp;&amp; utility2 test test.js</tspan>
<tspan x="10" y="410"></tspan>
<tspan x="10" y="426"></tspan>
<tspan x="10" y="442">[MODE_BUILD=npmTestPublished] - 2016-10-27T18:45:54Z - npm-testing /tmp/app/node_modules/rbst-li\</tspan>
<tspan x="10" y="458">te</tspan>
<tspan x="10" y="474"></tspan>
<tspan x="10" y="490"></tspan>
<tspan x="10" y="506">covering $ /home/travis/.nvm/versions/node/v7.0.0/bin/node /tmp/app/node_modules/rbst-lite/test.\</tspan>
<tspan x="10" y="522">js</tspan>
<tspan x="10" y="538"></tspan>
<tspan x="10" y="554">find 0</tspan>
<tspan x="10" y="570">{ key: 0,</tspan>
<tspan x="10" y="586">  data: 8,</tspan>
<tspan x="10" y="602">  left: </tspan>
<tspan x="10" y="618">   { key: -0.5,</tspan>
<tspan x="10" y="634">     data: 3,</tspan>
<tspan x="10" y="650">     left: { key: -1, data: 7, left: null, right: null, size: 1 },</tspan>
<tspan x="10" y="666">     right: null,</tspan>
<tspan x="10" y="682">     size: 2 },</tspan>
<tspan x="10" y="698">  right: { key: 0, data: 10, left: null, right: null, size: 1 },</tspan>
<tspan x="10" y="714">  size: 4 }</tspan>
<tspan x="10" y="730"></tspan>
<tspan x="10" y="746">find undefined</tspan>
<tspan x="10" y="762">null</tspan>
<tspan x="10" y="778"></tspan>
<tspan x="10" y="794">findInKeyRange [0, Infinity]</tspan>
<tspan x="10" y="810">[ 0, 0, 1, 2, 3 ]</tspan>
<tspan x="10" y="826"></tspan>
<tspan x="10" y="842">tree</tspan>
<tspan x="10" y="858">(ii,depth,size) key</tspan>
<tspan x="10" y="874">(0,5,1) * * * * * -1</tspan>
<tspan x="10" y="890">(1,4,2) * * * * -0.5</tspan>
<tspan x="10" y="906">(2,3,4) * * * 0</tspan>
<tspan x="10" y="922">(3,4,1) * * * * 0</tspan>
<tspan x="10" y="938">(4,2,7) * * 1</tspan>
<tspan x="10" y="954">(5,3,2) * * * 2</tspan>
<tspan x="10" y="970">(6,4,1) * * * * 3</tspan>
<tspan x="10" y="986">(7,1,12) * false</tspan>
<tspan x="10" y="1002">(8,2,4) * * true</tspan>
<tspan x="10" y="1018">(9,3,3) * * * "-1"</tspan>
<tspan x="10" y="1034">(10,5,1) * * * * * "0"</tspan>
<tspan x="10" y="1050">(11,4,2) * * * * "1"</tspan>
<tspan x="10" y="1066">(12,0,19) "a"</tspan>
<tspan x="10" y="1082">(13,2,1) * * "b"</tspan>
<tspan x="10" y="1098">(14,1,6) * null</tspan>
<tspan x="10" y="1114">(15,2,4) * * []</tspan>
<tspan x="10" y="1130">(16,4,2) * * * * null</tspan>
<tspan x="10" y="1146">(17,5,1) * * * * * {}</tspan>
<tspan x="10" y="1162">(18,3,3) * * * undefined</tspan>
<tspan x="10" y="1178">height = 5</tspan>
<tspan x="10" y="1194"></tspan>
<tspan x="10" y="1210">tree</tspan>
<tspan x="10" y="1226">(ii,depth,size) key</tspan>
<tspan x="10" y="1242">(0,5,1) * * * * * -1</tspan>
<tspan x="10" y="1258">(1,4,2) * * * * -0.5</tspan>
<tspan x="10" y="1274">(2,3,4) * * * 0</tspan>
<tspan x="10" y="1290">(3,4,1) * * * * 0</tspan>
<tspan x="10" y="1306">(4,2,7) * * 1</tspan>
<tspan x="10" y="1322">(5,3,2) * * * 2</tspan>
<tspan x="10" y="1338">(6,4,1) * * * * 3</tspan>
<tspan x="10" y="1354">(7,1,11) * false</tspan>
<tspan x="10" y="1370">(8,2,3) * * "-1"</tspan>
<tspan x="10" y="1386">(9,4,1) * * * * "0"</tspan>
<tspan x="10" y="1402">(10,3,2) * * * "1"</tspan>
<tspan x="10" y="1418">(11,0,18) "a"</tspan>
<tspan x="10" y="1434">(12,2,1) * * "b"</tspan>
<tspan x="10" y="1450">(13,1,6) * null</tspan>
<tspan x="10" y="1466">(14,2,4) * * []</tspan>
<tspan x="10" y="1482">(15,4,2) * * * * null</tspan>
<tspan x="10" y="1498">(16,5,1) * * * * * {}</tspan>
<tspan x="10" y="1514">(17,3,3) * * * undefined</tspan>
<tspan x="10" y="1530">height = 5</tspan>
<tspan x="10" y="1546"></tspan>
<tspan x="10" y="1562">find 0</tspan>
<tspan x="10" y="1578">{ key: 0,</tspan>
<tspan x="10" y="1594">  data: 3,</tspan>
<tspan x="10" y="1610">  left: </tspan>
<tspan x="10" y="1626">   { key: -1,</tspan>
<tspan x="10" y="1642">     data: 4,</tspan>
<tspan x="10" y="1658">     left: null,</tspan>
<tspan x="10" y="1674">     right: { key: 0, data: 0, left: [Object], right: null, size: 2 },</tspan>
<tspan x="10" y="1690">     size: 3 },</tspan>
<tspan x="10" y="1706">  right: { key: 1, data: 2, left: null, right: null, size: 1 },</tspan>
<tspan x="10" y="1722">  size: 5 }</tspan>
<tspan x="10" y="1738"></tspan>
<tspan x="10" y="1754">find undefined</tspan>
<tspan x="10" y="1770">null</tspan>
<tspan x="10" y="1786"></tspan>
<tspan x="10" y="1802">findInKeyRange [0, Infinity]</tspan>
<tspan x="10" y="1818">[ 0, 0, 1, 2, 3 ]</tspan>
<tspan x="10" y="1834"></tspan>
<tspan x="10" y="1850">tree</tspan>
<tspan x="10" y="1866">(ii,depth,size) key</tspan>
<tspan x="10" y="1882">(0,4,3) * * * * -1</tspan>
<tspan x="10" y="1898">(1,6,1) * * * * * * -0.5</tspan>
<tspan x="10" y="1914">(2,5,2) * * * * * 0</tspan>
<tspan x="10" y="1930">(3,3,5) * * * 0</tspan>
<tspan x="10" y="1946">(4,4,1) * * * * 1</tspan>
<tspan x="10" y="1962">(5,2,6) * * 2</tspan>
<tspan x="10" y="1978">(6,1,13) * 3</tspan>
<tspan x="10" y="1994">(7,4,1) * * * * false</tspan>
<tspan x="10" y="2010">(8,3,2) * * * true</tspan>
<tspan x="10" y="2026">(9,2,6) * * "-1"</tspan>
<tspan x="10" y="2042">(10,5,1) * * * * * "0"</tspan>
<tspan x="10" y="2058">(11,4,2) * * * * "1"</tspan>
<tspan x="10" y="2074">(12,3,3) * * * "a"</tspan>
<tspan x="10" y="2090">(13,0,19) "b"</tspan>
<tspan x="10" y="2106">(14,2,4) * * null</tspan>
<tspan x="10" y="2122">(15,3,3) * * * {}</tspan>
<tspan x="10" y="2138">(16,4,2) * * * * null</tspan>
<tspan x="10" y="2154">(17,5,1) * * * * * []</tspan>
<tspan x="10" y="2170">(18,1,5) * undefined</tspan>
<tspan x="10" y="2186">height = 6</tspan>
<tspan x="10" y="2202"></tspan>
<tspan x="10" y="2218">tree</tspan>
<tspan x="10" y="2234">(ii,depth,size) key</tspan>
<tspan x="10" y="2250">(0,4,3) * * * * -1</tspan>
<tspan x="10" y="2266">(1,6,1) * * * * * * -0.5</tspan>
<tspan x="10" y="2282">(2,5,2) * * * * * 0</tspan>
<tspan x="10" y="2298">(3,3,5) * * * 0</tspan>
<tspan x="10" y="2314">(4,4,1) * * * * 1</tspan>
<tspan x="10" y="2330">(5,2,6) * * 2</tspan>
<tspan x="10" y="2346">(6,1,12) * 3</tspan>
<tspan x="10" y="2362">(7,3,1) * * * false</tspan>
<tspan x="10" y="2378">(8,2,5) * * "-1"</tspan>
<tspan x="10" y="2394">(9,5,1) * * * * * "0"</tspan>
<tspan x="10" y="2410">(10,4,2) * * * * "1"</tspan>
<tspan x="10" y="2426">(11,3,3) * * * "a"</tspan>
<tspan x="10" y="2442">(12,0,18) "b"</tspan>
<tspan x="10" y="2458">(13,2,4) * * null</tspan>
<tspan x="10" y="2474">(14,3,3) * * * {}</tspan>
<tspan x="10" y="2490">(15,4,2) * * * * null</tspan>
<tspan x="10" y="2506">(16,5,1) * * * * * []</tspan>
<tspan x="10" y="2522">(17,1,5) * undefined</tspan>
<tspan x="10" y="2538">height = 6</tspan>
<tspan x="10" y="2554">[node test-case 1 of 2 passed] - testCase_rbst_default</tspan>
<tspan x="10" y="2570"></tspan>
<tspan x="10" y="2586">browserTest - created electron entry-page /tmp/app/node_modules/rbst-lite/tmp/electron.15807767-\</tspan>
<tspan x="10" y="2602">b922-45c2-8e10-ad60c69ede31.html</tspan>
<tspan x="10" y="2618"></tspan>
<tspan x="10" y="2634">[3994:1027/184555:ERROR:browser_main_loop.cc(231)] Running without the SUID sandbox! See https:/\</tspan>
<tspan x="10" y="2650">/chromium.googlesource.com/chromium/src/+/master/docs/linux_suid_sandbox_development.md for more\</tspan>
<tspan x="10" y="2666"> information on developing with the sandbox on.</tspan>
<tspan x="10" y="2682">Xlib:  extension "RANDR" missing on display ":99.0".</tspan>
<tspan x="10" y="2698"></tspan>
<tspan x="10" y="2714">/tmp/app/node_modules/rbst-lite/node_modules/utility2/index.sh.js</tspan>
<tspan x="10" y="2730"> #1 Unused 'match0'.</tspan>
<tspan x="10" y="2746">    local.readme.replace(rgx, function (match0, match1, match2, ii, text) { // Line 865, Pos 41</tspan>
<tspan x="10" y="2762"></tspan>
<tspan x="10" y="2778">Xlib:  extension "RANDR" missing on display ":99.0".</tspan>
<tspan x="10" y="2794">[3994:1027/184556:WARNING:audio_manager.cc(314)] Multiple instances of AudioManager detected</tspan>
<tspan x="10" y="2810">[3994:1027/184556:WARNING:audio_manager.cc(275)] Multiple instances of AudioManager detected</tspan>
<tspan x="10" y="2826">[4018:1027/184556:ERROR:sandbox_linux.cc(343)] InitializeSandbox() called with multiple threads \</tspan>
<tspan x="10" y="2842">in process gpu-process. </tspan>
<tspan x="10" y="2858">[3994:1027/184556:ERROR:browser_gpu_channel_host_factory.cc(131)] Failed to create channel.</tspan>
<tspan x="10" y="2874"></tspan>
<tspan x="10" y="2890">browserTest - opened url file:///tmp/app/node_modules/rbst-lite/tmp/build/doc.api.html</tspan>
<tspan x="10" y="2906"></tspan>
<tspan x="10" y="2922"></tspan>
<tspan x="10" y="2938">browserTest - created screen-capture file:///tmp/app/node_modules/rbst-lite/tmp/build/screen-cap\</tspan>
<tspan x="10" y="2954">ture.npmTestPublished.browser._2Ftmp_2Fapp_2Fnode_modules_2Frbst-lite_2Ftmp_2Fbuild_2Fdoc.api.ht\</tspan>
<tspan x="10" y="2970">ml.png</tspan>
<tspan x="10" y="2986"></tspan>
<tspan x="10" y="3002"></tspan>
<tspan x="10" y="3018">browserTest - exit-code 0 - file:///tmp/app/node_modules/rbst-lite/tmp/build/doc.api.html</tspan>
<tspan x="10" y="3034"></tspan>
<tspan x="10" y="3050">[node test-case 2 of 2 passed] - testCase_build_doc</tspan>
<tspan x="10" y="3066">---------------|-----------|-----------|-----------|-----------|</tspan>
<tspan x="10" y="3082">File           |   % Stmts |% Branches |   % Funcs |   % Lines |</tspan>
<tspan x="10" y="3098">---------------|-----------|-----------|-----------|-----------|</tspan>
<tspan x="10" y="3114">   rbst-lite/  |       100 |       100 |       100 |       100 |</tspan>
<tspan x="10" y="3130">      index.js |       100 |       100 |       100 |       100 |</tspan>
<tspan x="10" y="3146">      test.js  |       100 |       100 |       100 |       100 |</tspan>
<tspan x="10" y="3162">---------------|-----------|-----------|-----------|-----------|</tspan>
<tspan x="10" y="3178">All files      |       100 |       100 |       100 |       100 |</tspan>
<tspan x="10" y="3194">---------------|-----------|-----------|-----------|-----------|</tspan>
<tspan x="10" y="3210"></tspan>
<tspan x="10" y="3226">created coverage file:///tmp/app/node_modules/rbst-lite/tmp/build/coverage.html/index.html</tspan>
<tspan x="10" y="3242"></tspan>
<tspan x="10" y="3258">/home/travis/build/kaizhu256/node-rbst-lite/node_modules/utility2/index.sh.js</tspan>
<tspan x="10" y="3274"> #1 Unused 'match0'.</tspan>
<tspan x="10" y="3290">    local.readme.replace(rgx, function (match0, match1, match2, ii, text) { // Line 865, Pos 41</tspan>
<tspan x="10" y="3306"></tspan>
<tspan x="10" y="3322"></tspan>
<tspan x="10" y="3338">-------------------------------------------------------</tspan>
<tspan x="10" y="3354">| test-report - npmTestPublished - node - linux v7.0.0 - 2016-10-27T18:45:54.855Z</tspan>
<tspan x="10" y="3370">|    6561 ms            0 failed        2 passed      |</tspan>
<tspan x="10" y="3386">-------------------------------------------------------</tspan>
<tspan x="10" y="3402"></tspan>
<tspan x="10" y="3418">created test-report file:///tmp/app/node_modules/rbst-lite/tmp/build/test-report.html</tspan>
<tspan x="10" y="3434"></tspan>
<tspan x="10" y="3450"></tspan>
<tspan x="10" y="3466">npmTestPublished - 0 failed tests</tspan>
</text>
</svg>
