<svg height="3262" width="720" xmlns="http://www.w3.org/2000/svg">
<rect height="3262" fill="#555" width="720"></rect>
<text fill="#7f7" font-family="Courier New" font-size="12" xml:space="preserve">
<tspan x="10" y="26"></tspan>
<tspan x="10" y="42">&gt; rbst-lite@2016.10.10 test /home/travis/build/kaizhu256/node-rbst-lite</tspan>
<tspan x="10" y="58">&gt; export PORT=$(utility2 shServerPortRandom) &amp;&amp; utility2 test test.js</tspan>
<tspan x="10" y="74"></tspan>
<tspan x="10" y="90"></tspan>
<tspan x="10" y="106">[MODE_BUILD=npmTest] - 2016-10-27T18:46:03Z - npm-testing /home/travis/build/kaizhu256/node-rbst\</tspan>
<tspan x="10" y="122">-lite</tspan>
<tspan x="10" y="138"></tspan>
<tspan x="10" y="154"></tspan>
<tspan x="10" y="170">covering $ /home/travis/.nvm/versions/node/v7.0.0/bin/node /home/travis/build/kaizhu256/node-rbs\</tspan>
<tspan x="10" y="186">t-lite/test.js</tspan>
<tspan x="10" y="202"></tspan>
<tspan x="10" y="218">find 0</tspan>
<tspan x="10" y="234">{ key: 0,</tspan>
<tspan x="10" y="250">  data: 14,</tspan>
<tspan x="10" y="266">  left: </tspan>
<tspan x="10" y="282">   { key: 0,</tspan>
<tspan x="10" y="298">     data: 7,</tspan>
<tspan x="10" y="314">     left: { key: -0.5, data: 8, left: null, right: null, size: 1 },</tspan>
<tspan x="10" y="330">     right: null,</tspan>
<tspan x="10" y="346">     size: 2 },</tspan>
<tspan x="10" y="362">  right: </tspan>
<tspan x="10" y="378">   { key: true,</tspan>
<tspan x="10" y="394">     data: 0,</tspan>
<tspan x="10" y="410">     left: { key: 1, data: 10, left: null, right: [Object], size: 4 },</tspan>
<tspan x="10" y="426">     right: null,</tspan>
<tspan x="10" y="442">     size: 5 },</tspan>
<tspan x="10" y="458">  size: 8 }</tspan>
<tspan x="10" y="474"></tspan>
<tspan x="10" y="490">find undefined</tspan>
<tspan x="10" y="506">null</tspan>
<tspan x="10" y="522"></tspan>
<tspan x="10" y="538">findInKeyRange [0, Infinity]</tspan>
<tspan x="10" y="554">[ 0, 0, 1, 2, 3 ]</tspan>
<tspan x="10" y="570"></tspan>
<tspan x="10" y="586">tree</tspan>
<tspan x="10" y="602">(ii,depth,size) key</tspan>
<tspan x="10" y="618">(0,1,14) * -1</tspan>
<tspan x="10" y="634">(1,5,1) * * * * * -0.5</tspan>
<tspan x="10" y="650">(2,4,2) * * * * 0</tspan>
<tspan x="10" y="666">(3,3,8) * * * 0</tspan>
<tspan x="10" y="682">(4,5,4) * * * * * 1</tspan>
<tspan x="10" y="698">(5,7,1) * * * * * * * 2</tspan>
<tspan x="10" y="714">(6,6,3) * * * * * * 3</tspan>
<tspan x="10" y="730">(7,7,1) * * * * * * * false</tspan>
<tspan x="10" y="746">(8,4,5) * * * * true</tspan>
<tspan x="10" y="762">(9,2,13) * * "-1"</tspan>
<tspan x="10" y="778">(10,4,2) * * * * "0"</tspan>
<tspan x="10" y="794">(11,5,1) * * * * * "1"</tspan>
<tspan x="10" y="810">(12,3,4) * * * "a"</tspan>
<tspan x="10" y="826">(13,4,1) * * * * "b"</tspan>
<tspan x="10" y="842">(14,0,19) null</tspan>
<tspan x="10" y="858">(15,1,4) * []</tspan>
<tspan x="10" y="874">(16,3,2) * * * null</tspan>
<tspan x="10" y="890">(17,4,1) * * * * {}</tspan>
<tspan x="10" y="906">(18,2,3) * * undefined</tspan>
<tspan x="10" y="922">height = 7</tspan>
<tspan x="10" y="938"></tspan>
<tspan x="10" y="954">tree</tspan>
<tspan x="10" y="970">(ii,depth,size) key</tspan>
<tspan x="10" y="986">(0,1,13) * -1</tspan>
<tspan x="10" y="1002">(1,5,1) * * * * * -0.5</tspan>
<tspan x="10" y="1018">(2,4,2) * * * * 0</tspan>
<tspan x="10" y="1034">(3,3,7) * * * 0</tspan>
<tspan x="10" y="1050">(4,4,4) * * * * 1</tspan>
<tspan x="10" y="1066">(5,6,1) * * * * * * 2</tspan>
<tspan x="10" y="1082">(6,5,3) * * * * * 3</tspan>
<tspan x="10" y="1098">(7,6,1) * * * * * * false</tspan>
<tspan x="10" y="1114">(8,2,12) * * "-1"</tspan>
<tspan x="10" y="1130">(9,4,2) * * * * "0"</tspan>
<tspan x="10" y="1146">(10,5,1) * * * * * "1"</tspan>
<tspan x="10" y="1162">(11,3,4) * * * "a"</tspan>
<tspan x="10" y="1178">(12,4,1) * * * * "b"</tspan>
<tspan x="10" y="1194">(13,0,18) null</tspan>
<tspan x="10" y="1210">(14,1,4) * []</tspan>
<tspan x="10" y="1226">(15,3,2) * * * null</tspan>
<tspan x="10" y="1242">(16,4,1) * * * * {}</tspan>
<tspan x="10" y="1258">(17,2,3) * * undefined</tspan>
<tspan x="10" y="1274">height = 6</tspan>
<tspan x="10" y="1290"></tspan>
<tspan x="10" y="1306">find 0</tspan>
<tspan x="10" y="1322">{ key: 0,</tspan>
<tspan x="10" y="1338">  data: 7,</tspan>
<tspan x="10" y="1354">  left: null,</tspan>
<tspan x="10" y="1370">  right: { key: 0, data: 16, left: null, right: null, size: 1 },</tspan>
<tspan x="10" y="1386">  size: 2 }</tspan>
<tspan x="10" y="1402"></tspan>
<tspan x="10" y="1418">find undefined</tspan>
<tspan x="10" y="1434">null</tspan>
<tspan x="10" y="1450"></tspan>
<tspan x="10" y="1466">findInKeyRange [0, Infinity]</tspan>
<tspan x="10" y="1482">[ 0, 0, 1, 2, 3 ]</tspan>
<tspan x="10" y="1498"></tspan>
<tspan x="10" y="1514">tree</tspan>
<tspan x="10" y="1530">(ii,depth,size) key</tspan>
<tspan x="10" y="1546">(0,4,1) * * * * -1</tspan>
<tspan x="10" y="1562">(1,3,4) * * * -0.5</tspan>
<tspan x="10" y="1578">(2,4,2) * * * * 0</tspan>
<tspan x="10" y="1594">(3,5,1) * * * * * 0</tspan>
<tspan x="10" y="1610">(4,2,9) * * 1</tspan>
<tspan x="10" y="1626">(5,4,1) * * * * 2</tspan>
<tspan x="10" y="1642">(6,3,4) * * * 3</tspan>
<tspan x="10" y="1658">(7,4,2) * * * * false</tspan>
<tspan x="10" y="1674">(8,5,1) * * * * * true</tspan>
<tspan x="10" y="1690">(9,1,14) * "-1"</tspan>
<tspan x="10" y="1706">(10,3,2) * * * "0"</tspan>
<tspan x="10" y="1722">(11,4,1) * * * * "1"</tspan>
<tspan x="10" y="1738">(12,2,4) * * "a"</tspan>
<tspan x="10" y="1754">(13,3,1) * * * "b"</tspan>
<tspan x="10" y="1770">(14,0,19) null</tspan>
<tspan x="10" y="1786">(15,2,3) * * null</tspan>
<tspan x="10" y="1802">(16,3,2) * * * {}</tspan>
<tspan x="10" y="1818">(17,4,1) * * * * []</tspan>
<tspan x="10" y="1834">(18,1,4) * undefined</tspan>
<tspan x="10" y="1850">height = 5</tspan>
<tspan x="10" y="1866"></tspan>
<tspan x="10" y="1882">tree</tspan>
<tspan x="10" y="1898">(ii,depth,size) key</tspan>
<tspan x="10" y="1914">(0,4,1) * * * * -1</tspan>
<tspan x="10" y="1930">(1,3,4) * * * -0.5</tspan>
<tspan x="10" y="1946">(2,4,2) * * * * 0</tspan>
<tspan x="10" y="1962">(3,5,1) * * * * * 0</tspan>
<tspan x="10" y="1978">(4,2,8) * * 1</tspan>
<tspan x="10" y="1994">(5,4,1) * * * * 2</tspan>
<tspan x="10" y="2010">(6,3,3) * * * 3</tspan>
<tspan x="10" y="2026">(7,4,1) * * * * false</tspan>
<tspan x="10" y="2042">(8,1,13) * "-1"</tspan>
<tspan x="10" y="2058">(9,3,2) * * * "0"</tspan>
<tspan x="10" y="2074">(10,4,1) * * * * "1"</tspan>
<tspan x="10" y="2090">(11,2,4) * * "a"</tspan>
<tspan x="10" y="2106">(12,3,1) * * * "b"</tspan>
<tspan x="10" y="2122">(13,0,18) null</tspan>
<tspan x="10" y="2138">(14,2,3) * * null</tspan>
<tspan x="10" y="2154">(15,3,2) * * * {}</tspan>
<tspan x="10" y="2170">(16,4,1) * * * * []</tspan>
<tspan x="10" y="2186">(17,1,4) * undefined</tspan>
<tspan x="10" y="2202">height = 5</tspan>
<tspan x="10" y="2218">[node test-case 1 of 2 passed] - testCase_rbst_default</tspan>
<tspan x="10" y="2234"></tspan>
<tspan x="10" y="2250">browserTest - created electron entry-page /home/travis/build/kaizhu256/node-rbst-lite/tmp/electr\</tspan>
<tspan x="10" y="2266">on.15807769-eeb2-485b-a404-64cc17a41c9a.html</tspan>
<tspan x="10" y="2282"></tspan>
<tspan x="10" y="2298">[4219:1027/184604:ERROR:browser_main_loop.cc(231)] Running without the SUID sandbox! See https:/\</tspan>
<tspan x="10" y="2314">/chromium.googlesource.com/chromium/src/+/master/docs/linux_suid_sandbox_development.md for more\</tspan>
<tspan x="10" y="2330"> information on developing with the sandbox on.</tspan>
<tspan x="10" y="2346">Xlib:  extension "RANDR" missing on display ":99.0".</tspan>
<tspan x="10" y="2362"></tspan>
<tspan x="10" y="2378">/home/travis/build/kaizhu256/node-rbst-lite/node_modules/utility2/index.sh.js</tspan>
<tspan x="10" y="2394"> #1 Unused 'match0'.</tspan>
<tspan x="10" y="2410">    local.readme.replace(rgx, function (match0, match1, match2, ii, text) { // Line 865, Pos 41</tspan>
<tspan x="10" y="2426"></tspan>
<tspan x="10" y="2442">Xlib:  extension "RANDR" missing on display ":99.0".</tspan>
<tspan x="10" y="2458">[4219:1027/184604:WARNING:audio_manager.cc(314)] Multiple instances of AudioManager detected</tspan>
<tspan x="10" y="2474">[4219:1027/184604:WARNING:audio_manager.cc(275)] Multiple instances of AudioManager detected</tspan>
<tspan x="10" y="2490">[4258:1027/184604:ERROR:sandbox_linux.cc(343)] InitializeSandbox() called with multiple threads \</tspan>
<tspan x="10" y="2506">in process gpu-process. </tspan>
<tspan x="10" y="2522">[4219:1027/184604:ERROR:browser_gpu_channel_host_factory.cc(131)] Failed to create channel.</tspan>
<tspan x="10" y="2538"></tspan>
<tspan x="10" y="2554">browserTest - opened url file:///home/travis/build/kaizhu256/node-rbst-lite/tmp/build/doc.api.ht\</tspan>
<tspan x="10" y="2570">ml</tspan>
<tspan x="10" y="2586"></tspan>
<tspan x="10" y="2602"></tspan>
<tspan x="10" y="2618">browserTest - created screen-capture file:///home/travis/build/kaizhu256/node-rbst-lite/tmp/buil\</tspan>
<tspan x="10" y="2634">d/screen-capture.npmTest.browser._2Fhome_2Ftravis_2Fbuild_2Fkaizhu256_2Fnode-rbst-lite_2Ftmp_2Fb\</tspan>
<tspan x="10" y="2650">uild_2Fdoc.api.html.png</tspan>
<tspan x="10" y="2666"></tspan>
<tspan x="10" y="2682"></tspan>
<tspan x="10" y="2698">browserTest - exit-code 0 - file:///home/travis/build/kaizhu256/node-rbst-lite/tmp/build/doc.api\</tspan>
<tspan x="10" y="2714">.html</tspan>
<tspan x="10" y="2730"></tspan>
<tspan x="10" y="2746">[node test-case 2 of 2 passed] - testCase_build_doc</tspan>
<tspan x="10" y="2762">-------------------|-----------|-----------|-----------|-----------|</tspan>
<tspan x="10" y="2778">File               |   % Stmts |% Branches |   % Funcs |   % Lines |</tspan>
<tspan x="10" y="2794">-------------------|-----------|-----------|-----------|-----------|</tspan>
<tspan x="10" y="2810">   node-rbst-lite/ |       100 |       100 |       100 |       100 |</tspan>
<tspan x="10" y="2826">      index.js     |       100 |       100 |       100 |       100 |</tspan>
<tspan x="10" y="2842">      test.js      |       100 |       100 |       100 |       100 |</tspan>
<tspan x="10" y="2858">-------------------|-----------|-----------|-----------|-----------|</tspan>
<tspan x="10" y="2874">All files          |       100 |       100 |       100 |       100 |</tspan>
<tspan x="10" y="2890">-------------------|-----------|-----------|-----------|-----------|</tspan>
<tspan x="10" y="2906"></tspan>
<tspan x="10" y="2922">created coverage file:///home/travis/build/kaizhu256/node-rbst-lite/tmp/build/coverage.html/inde\</tspan>
<tspan x="10" y="2938">x.html</tspan>
<tspan x="10" y="2954"></tspan>
<tspan x="10" y="2970">/home/travis/build/kaizhu256/node-rbst-lite/node_modules/utility2/index.sh.js</tspan>
<tspan x="10" y="2986"> #1 Unused 'match0'.</tspan>
<tspan x="10" y="3002">    local.readme.replace(rgx, function (match0, match1, match2, ii, text) { // Line 865, Pos 41</tspan>
<tspan x="10" y="3018"></tspan>
<tspan x="10" y="3034"></tspan>
<tspan x="10" y="3050">-------------------------------------------------------</tspan>
<tspan x="10" y="3066">| test-report - npmTest - node - linux v7.0.0 - 2016-10-27T18:46:03.925Z</tspan>
<tspan x="10" y="3082">|    6286 ms            0 failed        2 passed      |</tspan>
<tspan x="10" y="3098">-------------------------------------------------------</tspan>
<tspan x="10" y="3114">| test-report - npmTestPublished - node - linux v7.0.0 - 2016-10-27T18:45:54.855Z</tspan>
<tspan x="10" y="3130">|    6561 ms            0 failed        2 passed      |</tspan>
<tspan x="10" y="3146">-------------------------------------------------------</tspan>
<tspan x="10" y="3162"></tspan>
<tspan x="10" y="3178">created test-report file:///home/travis/build/kaizhu256/node-rbst-lite/tmp/build/test-report.htm\</tspan>
<tspan x="10" y="3194">l</tspan>
<tspan x="10" y="3210"></tspan>
<tspan x="10" y="3226"></tspan>
<tspan x="10" y="3242">npmTest - 0 failed tests</tspan>
</text>
</svg>
